<svg id="visual" viewBox="0 0 900 300" width="900" height="250" xmlns="http://www.w3.org/2000/svg" xmlns:xlink="http://www.w3.org/1999/xlink" version="1.1"><rect x="0" y="0" width="900" height="300" fill="#2c3e50"></rect><path d="M0 113L21.5 109.7C43 106.3 86 99.7 128.8 102.2C171.7 104.7 214.3 116.3 257.2 113.3C300 110.3 343 92.7 385.8 83.8C428.7 75 471.3 75 514.2 81C557 87 600 99 642.8 102.2C685.7 105.3 728.3 99.7 771.2 95.3C814 91 857 88 878.5 86.5L900 85L900 0L878.5 0C857 0 814 0 771.2 0C728.3 0 685.7 0 642.8 0C600 0 557 0 514.2 0C471.3 0 428.7 0 385.8 0C343 0 300 0 257.2 0C214.3 0 171.7 0 128.8 0C86 0 43 0 21.5 0L0 0Z" fill="#002c5b"></path><path d="M0 72L21.5 74.7C43 77.3 86 82.7 128.8 82.5C171.7 82.3 214.3 76.7 257.2 78.3C300 80 343 89 385.8 89.2C428.7 89.3 471.3 80.7 514.2 80.2C557 79.7 600 87.3 642.8 93C685.7 98.7 728.3 102.3 771.2 99.7C814 97 857 88 878.5 83.5L900 79L900 0L878.5 0C857 0 814 0 771.2 0C728.3 0 685.7 0 642.8 0C600 0 557 0 514.2 0C471.3 0 428.7 0 385.8 0C343 0 300 0 257.2 0C214.3 0 171.7 0 128.8 0C86 0 43 0 21.5 0L0 0Z" fill="#0a3f72"></path><path d="M0 61L21.5 58.5C43 56 86 51 128.8 53C171.7 55 214.3 64 257.2 68.8C300 73.7 343 74.3 385.8 75.2C428.7 76 471.3 77 514.2 72.3C557 67.7 600 57.3 642.8 56.7C685.7 56 728.3 65 771.2 68C814 71 857 68 878.5 66.5L900 65L900 0L878.5 0C857 0 814 0 771.2 0C728.3 0 685.7 0 642.8 0C600 0 557 0 514.2 0C471.3 0 428.7 0 385.8 0C343 0 300 0 257.2 0C214.3 0 171.7 0 128.8 0C86 0 43 0 21.5 0L0 0Z" fill="#15548a"></path><path d="M0 45L21.5 44.2C43 43.3 86 41.7 128.8 40.8C171.7 40 214.3 40 257.2 41.2C300 42.3 343 44.7 385.8 42C428.7 39.3 471.3 31.7 514.2 31C557 30.3 600 36.7 642.8 42.3C685.7 48 728.3 53 771.2 54.3C814 55.7 857 53.3 878.5 52.2L900 51L900 0L878.5 0C857 0 814 0 771.2 0C728.3 0 685.7 0 642.8 0C600 0 557 0 514.2 0C471.3 0 428.7 0 385.8 0C343 0 300 0 257.2 0C214.3 0 171.7 0 128.8 0C86 0 43 0 21.5 0L0 0Z" fill="#1f6aa1"></path><path d="M0 11L21.5 12.5C43 14 86 17 128.8 21.8C171.7 26.7 214.3 33.3 257.2 34.2C300 35 343 30 385.8 25.5C428.7 21 471.3 17 514.2 19.7C557 22.3 600 31.7 642.8 34.2C685.7 36.7 728.3 32.3 771.2 32.2C814 32 857 36 878.5 38L900 40L900 0L878.5 0C857 0 814 0 771.2 0C728.3 0 685.7 0 642.8 0C600 0 557 0 514.2 0C471.3 0 428.7 0 385.8 0C343 0 300 0 257.2 0C214.3 0 171.7 0 128.8 0C86 0 43 0 21.5 0L0 0Z" fill="#2980b9"></path></svg>