<svg id="visual" viewBox="0 0 1000 200" width="1000" height="200" xmlns="http://www.w3.org/2000/svg" xmlns:xlink="http://www.w3.org/1999/xlink" version="1.1"><rect x="0" y="0" width="1000" height="200" fill="#2d3436"></rect><path d="M0 135L18.5 131.3C37 127.7 74 120.3 111 118.3C148 116.3 185 119.7 222 121.2C259 122.7 296 122.3 333 123.8C370 125.3 407 128.7 444.2 127.2C481.3 125.7 518.7 119.3 555.8 115.5C593 111.7 630 110.3 667 110.5C704 110.7 741 112.3 778 117.3C815 122.3 852 130.7 889 128.8C926 127 963 115 981.5 109L1000 103L1000 0L981.5 0C963 0 926 0 889 0C852 0 815 0 778 0C741 0 704 0 667 0C630 0 593 0 555.8 0C518.7 0 481.3 0 444.2 0C407 0 370 0 333 0C296 0 259 0 222 0C185 0 148 0 111 0C74 0 37 0 18.5 0L0 0Z" fill="#00593c"></path><path d="M0 103L18.5 105.5C37 108 74 113 111 114.2C148 115.3 185 112.7 222 107.8C259 103 296 96 333 95.7C370 95.3 407 101.7 444.2 107.8C481.3 114 518.7 120 555.8 122.7C593 125.3 630 124.7 667 121.7C704 118.7 741 113.3 778 112.3C815 111.3 852 114.7 889 117.8C926 121 963 124 981.5 125.5L1000 127L1000 0L981.5 0C963 0 926 0 889 0C852 0 815 0 778 0C741 0 704 0 667 0C630 0 593 0 555.8 0C518.7 0 481.3 0 444.2 0C407 0 370 0 333 0C296 0 259 0 222 0C185 0 148 0 111 0C74 0 37 0 18.5 0L0 0Z" fill="#036b4c"></path><path d="M0 94L18.5 92.8C37 91.7 74 89.3 111 86.8C148 84.3 185 81.7 222 78.2C259 74.7 296 70.3 333 70.3C370 70.3 407 74.7 444.2 80.3C481.3 86 518.7 93 555.8 94C593 95 630 90 667 91C704 92 741 99 778 97.8C815 96.7 852 87.3 889 81C926 74.7 963 71.3 981.5 69.7L1000 68L1000 0L981.5 0C963 0 926 0 889 0C852 0 815 0 778 0C741 0 704 0 667 0C630 0 593 0 555.8 0C518.7 0 481.3 0 444.2 0C407 0 370 0 333 0C296 0 259 0 222 0C185 0 148 0 111 0C74 0 37 0 18.5 0L0 0Z" fill="#057e5c"></path><path d="M0 60L18.5 63.2C37 66.3 74 72.7 111 73.2C148 73.7 185 68.3 222 65.8C259 63.3 296 63.7 333 66C370 68.3 407 72.7 444.2 75.3C481.3 78 518.7 79 555.8 78.7C593 78.3 630 76.7 667 72.2C704 67.7 741 60.3 778 59.3C815 58.3 852 63.7 889 64.2C926 64.7 963 60.3 981.5 58.2L1000 56L1000 0L981.5 0C963 0 926 0 889 0C852 0 815 0 778 0C741 0 704 0 667 0C630 0 593 0 555.8 0C518.7 0 481.3 0 444.2 0C407 0 370 0 333 0C296 0 259 0 222 0C185 0 148 0 111 0C74 0 37 0 18.5 0L0 0Z" fill="#06916e"></path><path d="M0 42L18.5 42.7C37 43.3 74 44.7 111 47.2C148 49.7 185 53.3 222 53.8C259 54.3 296 51.7 333 47.7C370 43.7 407 38.3 444.2 36.2C481.3 34 518.7 35 555.8 39.3C593 43.7 630 51.3 667 51.8C704 52.3 741 45.7 778 41.8C815 38 852 37 889 40.3C926 43.7 963 51.3 981.5 55.2L1000 59L1000 0L981.5 0C963 0 926 0 889 0C852 0 815 0 778 0C741 0 704 0 667 0C630 0 593 0 555.8 0C518.7 0 481.3 0 444.2 0C407 0 370 0 333 0C296 0 259 0 222 0C185 0 148 0 111 0C74 0 37 0 18.5 0L0 0Z" fill="#05a481"></path><path d="M0 17L18.5 19.3C37 21.7 74 26.3 111 27C148 27.7 185 24.3 222 22.8C259 21.3 296 21.7 333 23.7C370 25.7 407 29.3 444.2 30.3C481.3 31.3 518.7 29.7 555.8 26.8C593 24 630 20 667 19.5C704 19 741 22 778 25.5C815 29 852 33 889 33.8C926 34.7 963 32.3 981.5 31.2L1000 30L1000 0L981.5 0C963 0 926 0 889 0C852 0 815 0 778 0C741 0 704 0 667 0C630 0 593 0 555.8 0C518.7 0 481.3 0 444.2 0C407 0 370 0 333 0C296 0 259 0 222 0C185 0 148 0 111 0C74 0 37 0 18.5 0L0 0Z" fill="#00b894"></path></svg>