<svg id="visual" viewBox="0 0 1000 200" width="1000" height="200" xmlns="http://www.w3.org/2000/svg" xmlns:xlink="http://www.w3.org/1999/xlink" version="1.1"><rect x="0" y="0" width="1000" height="200" fill="#2d3436"></rect><path d="M0 13L18.5 22.8C37 32.7 74 52.3 111 60.5C148 68.7 185 65.3 222 62.8C259 60.3 296 58.7 333 68.5C370 78.3 407 99.7 444.2 97.8C481.3 96 518.7 71 555.8 55.5C593 40 630 34 667 42.2C704 50.3 741 72.7 778 68.8C815 65 852 35 889 21.2C926 7.3 963 9.7 981.5 10.8L1000 12L1000 0L981.5 0C963 0 926 0 889 0C852 0 815 0 778 0C741 0 704 0 667 0C630 0 593 0 555.8 0C518.7 0 481.3 0 444.2 0C407 0 370 0 333 0C296 0 259 0 222 0C185 0 148 0 111 0C74 0 37 0 18.5 0L0 0Z" fill="#00b894" stroke-linecap="round" stroke-linejoin="miter"></path></svg>