<svg xmlns="http://www.w3.org/2000/svg" width="100%" viewBox="0 0 403 403" height="150" xmlns:v="https://vecta.io/nano"><style><![CDATA[.B{fill:#28df19}.C{fill:#2d991d}.D{fill:#298d15}.E{fill:#1b9709}.F{fill:#378219}.G{fill:#1fe913}.H{fill:#36cc1f}.I{fill:#18a502}.J{fill:#248c1a}.K{fill:#1be211}.L{fill:#30a00d}.M{fill:#2aa422}.N{fill:#14f609}.O{fill:#1aed0f}.P{fill:#419920}.Q{fill:#446a25}]]></style><path fill="#000100" d="M1 135V1.021h402.917v402.834H1V135m216.862 162.611c-.266.618-.531 1.235-1.431 2.177-4.934 6.443-10.161 12.69-14.675 19.415-2.126 3.167-4.519 3.84-7.86 3.88l-68.385.965c-1.499.022-3.002.092-4.497.026-2.919-.13-4.354 1.139-4.265 4.795 3.576 8.555 6.817 17.269 10.805 25.627 6.134 12.856 15.501 23.015 27.903 30.084 9.282 5.291 19.862 5.341 30.059 5.681 17.473.583 34.979.126 52.47.243 5.628.037 9.769-2.038 12.784-6.876 4.086-6.557 8.303-13.045 12.753-19.359l29.944-41.966c9.169-13.166 18.423-26.306 26.859-39.94 13.842-22.372 27.089-45.114 40.502-67.75 3.028-5.11 5.707-10.426 9.009-16.27.075-1.691.731-3.644.112-5.024-1.691-3.771-3.672-7.467-5.976-10.898l-48.846-72.083c-1.38-2.007-4.345-3.656-6.809-4.07-17.423-2.922-34.993-3.817-52.62-2.401-11.145.895-21.992 3.063-32.208 9.593l-15.701 17.964c-.292.406-.585.812-1.462 1.73-1.06 1.269-2.235 2.459-3.158 3.821l-10.55 15.543c-.225.307-.45.614-1.336 1.558-.167.257-.333.514-1.116 1.01-7.389 7.642-13.266 16.346-18.607 26.027-.937 1.155-1.937 2.266-2.802 3.472l-34.232 47.369s-.305.001-.569-.451c-.287-.18-.574-.36-1.013-1.146-.094-.404-.187-.809-.388-1.934l-12.117-27.074c-.515-1.199-.329-3.283.409-4.349l31.305-44.701c5.209-7.562 9.933-15.459 15.438-23.952.136-.28.271-.56.927-1.164l13.727-20.573c.233-.235.403-.508.989-1.273 1.709-2.979 3.419-5.959 5.698-9.223 1.078-1.772 2.156-3.544 3.594-5.517 0 0 .269-.313.583-.488.119-.329.237-.659.936-1.421 3.256-4.388 6.513-8.777 10.718-12.953l6.216-.624c.463.032.926.064 2.347.506l29.5-.368c.244-.028.481 0 1.669.43l31.256.315c3.397.017 6.796-.229 10.827-.434.421-.636.841-1.273 1.331-2.47-4.707-9.883-8.736-20.165-14.256-29.572-13.73-23.395-34.782-35.581-61.749-35.917-14.558-.182-29.18 1.786-43.695 3.462-3.178.367-6.719 3.035-8.887 5.645-5.499 6.621-10.404 13.748-15.387 20.785l-38.394 54.165c-1.799 2.825-3.598 5.65-5.905 8.82-2.632 3.394-5.454 6.658-7.864 10.203l-50.438 74.628c-2.264 3.378-3.755 7.273-6.009 11.362l-1.309 2.08c.113 1.568-.083 3.235.385 4.689 8.79 27.308 24.889 50.457 42.132 73.461 0 0 .457.118.475.095 0 0-.024.016.109.709l4.861 6.319s.07.006.135.664l2.916 3.285s.073.014.161.71l5.446 7.52c.825.572 1.649 1.143 2.711 2.377.131.194.262.389.614 1.051l3.548 3.466c3.652.381 7.392 1.442 10.935.981 5.03-.654 9.846-2.875 14.873-3.64l45.317-6.253c6.372-.847 13.203-.621 16.734-8.381l9.545-12.125c3.367-4.45 6.595-9.007 10.433-13.727l13.322-20.217 14.069-19.903 12.576-17.214c.186-.276.373-.552.99-1.105.165-.294.329-.588.964-1.322 6.125-9.096 13.452-17.465 17.564-27.856 1.427.812 2.853 1.623 4.295 2.55 0 0 .105.049.162.606a25.16 25.16 0 0 1 2.415 2.284c.341.328.681.655 1.018 1.658l6.669 7.753c.256.268.513.535.797 1.268.344.275.688.55 1.255 1.125 0 0 .299.225.349.867 1.028.998 2.056 1.996 3.054 3.747-.084.487-.168.973-.86 1.899-1.267 1.726-2.637 3.387-3.783 5.19l-18.202 28.767-18.085 27.218-25.953 39.795s.193-.074-.093.545z"/><path d="M369.372 198.966c-2.84 5.221-5.519 10.537-8.547 15.647l-40.502 67.75c-8.436 13.634-17.69 26.774-26.859 39.94l-29.944 41.966c-4.45 6.314-8.667 12.802-12.753 19.359-3.015 4.838-7.156 6.913-12.784 6.876-17.491-.116-34.997.34-52.47-.243-10.197-.34-20.777-.39-30.059-5.681-12.402-7.07-21.769-17.229-27.903-30.084-3.988-8.358-7.229-17.072-10.531-25.849 1.012-.031 1.75.161 2.57.733l1.47 4.251c.084.563.17.877.306 1.515.652 1.187 1.281 2.043 1.967 3.016.057.117.243.299.23.579.123.822.26 1.365.441 2.255.349.961.654 1.574 1.031 2.457.379.949.686 1.628 1.041 2.67.979 1.71 1.911 3.056 2.821 4.714.552 1.613 1.126 2.915 1.808 4.562 1.323 2.088 2.537 3.832 3.819 5.701.176.284.313.413.536.882 1.326 2.045 2.593 3.722 3.968 5.631.461.599.814.966 1.302 1.512.35.4.6.566 1.028.863.337.43.544.664.927 1.179 4.658 4.799 8.802 9.819 15.88 11.125 5.577 1.736 10.914 4.315 16.308 4.441 21.714.506 43.446.264 65.172.271 3.982.001 6.661-1.772 7.669-5.925.225-.043.675-.124.894-.325.717-1.038 1.215-1.876 1.872-3.003 1.087-1.779 2.015-3.27 3.194-4.98l5.706-8.711c.022.013.066-.101.192-.333l.846-1.662c.022-.017.057-.06.288-.212a19.39 19.39 0 0 0 1.832-2.096c1.731-2.447 3.291-4.609 4.704-6.948-.348-.408-.561-.629-.673-1.135.717-1.407 1.323-2.517 2.162-3.779.732-.693 1.231-1.235 2.045-1.902 2.765-2.435 5.215-4.743 7.915-7.266 1.718-3.033 3.186-5.852 4.761-8.976.435-1.105.763-1.904 1.359-2.812 1.027-.686 1.788-1.262 2.585-1.871.037-.032.102-.106.343-.315l4.928-6.888 6.393-11.994c1.995-2.639 3.731-5.118 5.668-7.794.442-.487.683-.776 1.139-1.241.678-.965 1.141-1.754 1.891-2.733l9.904-14.315c.326-.301.497-.488.859-.971l5.2-9.01c.304-.315.465-.507.759-1 .467-1.095.79-1.898 1.361-2.921 2.762-4.839 5.084-9.578 7.831-14.054 5.349-8.714 10.877-17.319 16.445-25.895 3.695-5.691 7.588-11.254 11.693-17.015 2.854-3.412 5.408-6.683 7.961-9.954z" class="J"/><path d="M106.036 91.304l37.893-53.808c4.983-7.037 9.887-14.164 15.387-20.785 2.168-2.61 5.709-5.279 8.887-5.645 14.515-1.675 29.137-3.643 43.695-3.462 26.967.336 48.019 12.522 61.749 35.917 5.52 9.406 9.549 19.688 14.001 29.717-.705-.122-1.155-.389-1.711-.99l-5.526-10.925c-.013-.084-.121-.228-.119-.631-2.627-5.327-5.256-10.251-7.936-15.441-.394-.902-.737-1.537-1.201-2.509l-12.184-14.114c-.75-.71-1.329-1.192-2.105-1.949-2.739-1.82-5.28-3.366-7.957-4.975-.137-.063-.432-.122-.617-.4-2.32-1.527-4.455-2.776-6.73-4.087-.14-.062-.424-.177-.682-.43-6.51-2.064-12.762-3.874-19.302-5.709-.673-.03-1.057-.036-1.834-.208-9.246-.03-18.1.107-27.217.238-.614.007-.964.019-1.795-.038-9.627-.303-18.636.347-27.403 4.287l-19.642 27.576-30.856 43.245c-2.014 2.793-4.521 5.23-6.796 7.493l.004-2.366z" class="C"/><path fill="#2ec21e" d="M76.171 276.593c-16.888-22.693-32.987-45.841-41.778-73.15-.468-1.454-.272-3.121.248-4.947 7.813-.352 14.994-.445 22.662-.515l58.123.103c2.239 3.855 4.189 7.503 6.185 11.125l11.047 19.938.419 1.759c.396.967.654 1.389.869 2.179-1.629 2.932-3.217 5.497-4.763 7.69 3.021-5.746.908-10.513-1.654-15.284-3.742-6.97-7.636-13.877-10.96-21.045-1.503-3.24-3.473-4.596-6.794-4.562l-24.302.186-41.868.156c-6.072.239-6.959 1.119-5.503 6.392.81 2.933 2.539 5.611 3.931 8.736l2.097 4.963 4.815 10.054c.389 1.089.713 1.867 1.218 2.918 1.674 1.569 3.166 2.865 4.611 4.44-.038.655-.029 1.031.017 1.769 3.97 6.633 7.662 13.071 11.893 19.134 6.314 9.046 13.046 17.8 19.496 26.753.934 1.296 1.293 3.006 1.656 4.381l-2.741-1.775s-.073-.014-.106-.371c-1.005-1.433-1.977-2.51-2.948-3.586 0 0-.07-.006-.103-.379-1.676-2.462-3.318-4.55-4.961-6.639 0 0 .024-.016-.025-.144-.254-.395-.498-.445-.782-.278z"/><path d="M369.603 198.655c-2.785 3.583-5.338 6.854-8.146 9.892 1.274-3.834 3.195-7.332 4.169-11.077.504-1.939-.669-4.314-1.147-6.879-1.138-2.572-2.214-4.757-3.319-7.092-.029-.15-.136-.436-.212-.78-1.297-2.279-2.519-4.214-3.749-6.282-.009-.133-.092-.387-.177-.737-2.681-3.952-5.277-7.553-7.894-11.269-.02-.115-.115-.328-.174-.687-1.666-2.821-3.273-5.283-4.877-7.776.002-.031-.059-.031-.159-.325-.65-.913-1.201-1.533-1.752-2.396a2.65 2.65 0 0 0-.423-1.398 9.31 9.31 0 0 0-1.722-.876c-.02.027.017-.025-.083-.249-.297-.504-.56-.687-.81-.846.081-.072.133-.283.084-.574-.415-1-.781-1.709-1.258-2.666-.584-.777-1.056-1.305-1.638-2.168-2.01-3.25-3.726-6.307-5.844-9.054l-15.098-19.072c.003-.135-.093-.386-.128-.74-1.296-1.84-2.557-3.326-3.891-4.834-.073-.022-.202.061-.357-.26-4.383-1.444-8.612-2.567-13.138-3.811a15.57 15.57 0 0 0-2.606-.443c-2.268-.093-4.136-.199-6.362-.463-1.599-.411-2.84-.662-4.285-.996-.911-.055-1.617-.029-2.797.022l-9.511.37-12.41.077c-1.636.249-2.882.526-4.468.859-1.688.351-3.036.646-4.761.904-3.072.323-5.766.681-8.697 1.145-.516.302-.796.498-1.374.699-.696.025-1.093.047-1.641.033-.467-.065-.77-.013-1.377.231-1.396.413-2.474.717-3.646.987-.295-.065-.474-.014-.708.137-.077.017-.233-.015-.414.118-.418.325-.627.542-1.09.921-1.625.697-2.97 1.259-4.7 1.848-1.143.136-1.899.244-2.727.258l-.217-.281c9.631-6.19 20.478-8.358 31.624-9.253 17.627-1.416 35.197-.521 52.62 2.401 2.464.413 5.429 2.062 6.809 4.07l48.846 72.083c2.304 3.431 4.285 7.127 5.976 10.898.619 1.38-.037 3.332-.343 5.335z" class="M"/><path d="M217.883 297.141l26.025-39.87 18.085-27.218 18.202-28.767c1.147-1.803 2.516-3.463 4.25-5.588 1.787-.946 3.107-1.494 4.367-1.767l-2.994 5.272-12.24 20.942c-3.213 3.363-4.496 6.813-2.605 11.044 2.403 5.377 1.976 6.137-4.024 7.354-.47-2.269-.821-4.222-1.171-6.175l-1.084-.268-10.041 17.05c-.734 1.073-1.246 1.938-1.997 3.032-2.042 3.424-3.845 6.618-5.766 10.102-.731 1.38-1.343 2.471-2.255 3.721-3.745 5.104-7.192 10.048-10.843 15.255l-4.18 6.876c-3.003 3.095-5.742 5.992-8.731 8.807-1.092.013-1.934.106-2.804.171-.027-.029-.082-.087-.119-.068s-.075.093-.075.093z" class="D"/><path d="M280.423 61.407c1.802 3.503 3.604 7.006 5.132 11.041-2.701.891-5.117 1.381-7.557 1.579-4.435.36-8.883.545-13.774.786l-20.693.526c-.23-.086-.467-.114-1.289-.243l-25.005-.692c-.926-.138-1.671-.123-2.691-.086-.911.313-1.548.604-2.185.895a11.43 11.43 0 0 1-1.866-.265c-1.126-.266-1.774-.364-2.718-.632-2.374-.498-4.452-.825-6.741-1.448-2.541-3.709-4.985-7.051-7.178-10.551l-15.773-26a70.84 70.84 0 0 1 5.911 5.151l9.252 15.808c1.949 3.054 3.908 5.726 5.451 8.62 1.822 3.417 4.293 5.413 8.659 5.021 6.1-.679 11.832-1.245 17.838-1.553 1.829.724 3.374 1.553 4.942 1.599l43.193 1.015 2.078-.011c4.93.301 7.139-1.225 5.508-6.137-.457-1.377-.347-2.943-.497-4.422z" class="B"/><path fill="#298c1e" d="M35.723 196.24c1.849-3.655 3.34-7.551 5.604-10.928l50.438-74.628c2.41-3.545 5.232-6.809 8.178-10.31.314-.107.434.023.298.329l-4.486 8.618-17.163 25.741-4.988 7.046-1.969 2.987-21.711 31.968c-3.458 5.373-6.073 11.288-9.221 17.116-.351.369-.55.582-1 .874l-3.979 1.186z"/><path d="M132.605 228.787l-10.993-19.578-6.107-11.437c.08-1.357.351-2.183.895-3.003.638.013 1.003.021 1.71-.055 2.535-3.286 4.729-6.487 7.175-9.89l4.874-4.995c.38-.395.581-.635.803-1.177.086-.675.133-1.061.462-1.619 1.07-1.427 1.859-2.682 2.857-4.2l11.132-15.955a89.88 89.88 0 0 0 3.794-5.03c.714-1.116 1.293-1.956 2.098-3 .757-1.057 1.289-1.91 2.047-2.882.657-.389 1.089-.659 1.772-1.143.824-2.096 1.397-3.978 2.082-6.151 1.01-1.086 1.909-1.88 2.965-2.909l1.018-2.024c.747-1.013 1.33-1.783 2.182-2.658 1.396-.729 2.524-1.354 3.652-1.98-4.943 7.745-9.666 15.642-14.876 23.204l-31.305 44.701c-.739 1.066-.925 3.15-.409 4.349l12.171 27.434z" class="F"/><path d="M184.95 286.164c-3.12 7.403-9.95 7.177-16.323 8.024l-45.317 6.253c-5.027.765-9.843 2.986-14.873 3.64-3.542.461-7.283-.6-10.991-1.455 5.819-1.517 11.695-2.559 17.916-3.719 3.348-1.038 6.291-2.39 9.362-2.804l44.565-5.456c5.929-.57 11.032-1.809 14.815-6.555l.845 2.072z" class="J"/><path fill="#437819" d="M218.104 297.145l2.745-.178c.218.104.148.136-.078.328-.688 1.049-1.149 1.905-1.68 3.077-.163.736-.258 1.157-.594 1.737l-2.633 3.272-4.153 7.891-3.058 2.708-2.655 3.01c-.004.006-.011.019-.164.184-.346.394-.525.634-.745 1.182-.145.69-.233 1.083-.629 1.629l-8.926 3.067-43.143.294-27.627 1.828-1.087.079c-.698-.011-1.097.008-1.834.043-1.003.578-1.669 1.14-2.335 1.703l-2.411-.689c-.44-3.097.996-4.366 3.914-4.236 1.496.067 2.998-.004 4.497-.026l68.385-.965c3.341-.04 5.734-.713 7.86-3.88 4.515-6.725 9.741-12.972 15.033-19.739.677-.989.996-1.654 1.316-2.319z"/><path d="M115.017 299.024l-17.858 3.32c-1.221-.775-2.213-1.743-3.129-2.899.619-.32 1.162-.451 1.706-.582l-2.632-.943c-.825-.572-1.649-1.143-2.474-2.151 0-.436.262-.744.481-.693 1.059-.595 1.898-1.241 2.934-2.15l2.134-3.124c.343-.298.493-.505.801-.996l1.355-2.143 6.597-7.5c2.529 2.634 1.06 4.125-.787 5.954-1.022 1.012-2.055 3.817-1.617 4.22 3.876 3.565 5.678 9.954 12.49 9.688z" class="E"/><path d="M134.827 231.957l33.927-47.369c.866-1.207 1.865-2.317 3.055-3.337.257.477.262.819.176 1.46l-2.079 5.513-1.154 1.942-1.766 2.811c-.011.006-.014.032-.246.261l-5.043 6.921-5.939 10.054-14.037 17.997-6.894 3.747z" class="J"/><path d="M185.156 285.985c-.46-.457-.715-1.092-1.075-2.117-.106-.39-.16-.838.053-1.106 1.821-3.056 3.428-5.845 5.35-8.758 3.465-4.367 6.615-8.61 10.023-13.031 1.367-1.726 2.477-3.273 3.771-5.11 2.708-4.258 5.112-8.31 7.821-12.147.851-1.206 2.518-1.837 3.717-2.399l-10.027 18.847-9.883 13.517c-3.103 4.101-6.357 8.088-9.751 12.304z" class="F"/><path d="M269.103 174.773l-4.95-2.58-3.184-.333c-.419-.416-.655-.657-1.01-1.218-3.395-3.756-6.671-7.191-9.84-10.94.67-4.951-1.958-7.321-6.013-9.038l-1.165-2.14c-1.377-3.333-2.604-6.361-3.531-9.346.897.14 1.494.238 2.239.609 1.448 2.718 2.382 5.469 4.122 7.544 3.766 4.491 7.945 8.635 12.12 13.192l3.741 4.21c.47.636.812 1.044 1.302 1.754l6.169 8.286z" class="D"/><path d="M261.154 172.036l2.719.025c-3.161 10.667-10.488 19.036-16.989 28.416-.59.627-.804.971-1.018 1.315-.186.276-.373.552-1.099 1.046-1.615.51-2.691.801-3.743.738 1.056-2.398 2.088-4.441 3.361-6.7l3.139-4.848 10.918-14.82c1.005-1.415 1.774-2.796 2.584-4.427l.127-.746zm-89.079 10.375l-.01-1.282c4.832-9.696 10.71-18.399 18.463-25.794a3.71 3.71 0 0 1 .544 1.725c-.021-.004-.035-.039-.188.213-.371.805-.589 1.356-.821 2.211-.046.707-.077 1.111-.336 1.712-.742 1.051-1.255 1.904-2.008 2.973l-4.1 5.765-11.544 12.475z" class="F"/><path d="M201.248 73.162l6.171 1.227c-1.245.542-2.428.84-3.61 1.138L193.63 89.024c-.553.643-.696.954-.84 1.265 0 0-.269.313-.632.39-.612.076-.858.1-1.302.032-.599-.329-1-.54-1.453-1.111.214-2.168-.152-4.537.863-5.68 3.394-3.822 7.282-7.206 10.981-10.757z" class="P"/><path d="M269.111 174.83c-2.014-2.719-4.021-5.381-6.057-8.455-.029-.412.21-.635.495-.472 2.689 2.404 5.093 4.643 7.72 7.143l12.997 15.2c1.69 1.449 3.19 2.643 4.742 4.092.091.423.13.592.095.902a20.53 20.53 0 0 1-.23.417c-1.32.548-2.641 1.096-4.123 1.822-.078-.308.005-.795.118-1.891-1.025-1.666-2.079-2.723-3.133-3.779 0 0-.299-.225-.447-.595-.477-.654-.806-.937-1.135-1.22-.256-.268-.513-.535-.973-1.362-2.29-2.996-4.375-5.433-6.461-7.869-.341-.328-.681-.655-1.284-1.537-.912-1.132-1.561-1.709-2.21-2.287 0 0-.105-.049-.112-.107z" class="H"/><path d="M208.146 131.255l15.633-17.962c.292-.17.438.017.348.387-1.029 2.051-1.968 3.732-3.21 5.584l-4.154 4.647c-2.528 2.76-5.106 5.474-7.816 8.068a9.76 9.76 0 0 0-.799-.661l-.001-.063z" class="M"/><path d="M191.093 157.065l-.256-1.849c.11-.624.277-.881.891-1.537l1.154-1.24 10.284-15.462c.923-1.362 2.098-2.552 3.596-4.16.756-.449 1.074-.559 1.393-.307-.07 1.082-.142 1.802-.374 2.688a11.88 11.88 0 0 0-.972 1.123l-10.088 15.865-5.628 4.877z" class="C"/><g class="Q"><path d="M232.157 220.157l-13.855 19.685c-.36.105-.512-.034-.409-.359l2.061-5.46c.024-.043.087-.119.347-.318l4.856-8.536c.025-.028.075-.084.363-.221l6.402-5.024.235.233z"/><path d="M205.064 260.06c3.036-6.067 6.346-12.239 9.775-18.764.117-.353.174-.377.459-.471l2.492-1.017.228.208c-4.175 6.693-8.426 13.316-12.953 20.044z"/></g><path d="M134.674 231.957l7.1-3.478c-.747 1.666-1.857 3.224-2.857 4.851l-4.127 6.906c-2.129 1.066-4.045 1.894-5.916 2.401l.178-1.578c.021.037.09.087.09.087l4.861-8.249.213-.938.458-.001z" class="E"/><path d="M181.856 106.915l-13.561 20.102c.098-1.765.413-3.361.734-4.975.004-.018.022-.051.338-.163l5.588-7.909c.012-.017.051-.004.226-.174.401-.404.607-.655.863-1.113.071-.189.204-.57.416-.771.59-.884.969-1.567 1.369-2.505.089-.589.158-.924.558-1.328l3.525-1.159c-.018.006-.056-.005-.056-.005z" class="F"/><path d="M241.001 203.932l3.553-.959c-3.724 5.565-7.773 11.213-12.11 17.023-.287.161-.443.006-.395-.395 2.996-5.457 5.944-10.512 8.902-15.596.011-.028.05-.074.05-.074z" class="Q"/><path d="M244.01 75.51c6.27-.353 13.018-.534 20.711-.62l21.218.753c-3.398.126-6.797.371-10.194.354l-31.735-.487zm-31.169-.094c.158-.495.795-.786 2.022-.998l2.555.137 24.65.582c-9.314.294-19.031.389-29.226.279z" fill="#295800"/><path d="M35.521 196.457c1.445-.586 2.687-.954 4.451-1.135l6.602 1.618c3.397.467 6.827.691 10.243 1.017l-21.985.239c-.133-.535.177-1.029.689-1.74z" class="D"/><path d="M286.255 75.603l-21.087-.695c3.946-.335 8.395-.521 12.83-.881 2.44-.198 4.856-.688 7.663-1.246.831.068 1.281.335 1.951.737-.2.772-.621 1.408-1.358 2.084z" class="P"/><path d="M188.357 96.403l-5.36 9.185c-.232.246-.235.288-.18-.081l1.087-5.077c.091-.655.147-1.029.376-1.562a17.45 17.45 0 0 0 .981-.992c.336-.363.541-.557 1.065-.806l2.076-.664c-.01.011-.045-.001-.045-.001z" class="F"/><path d="M169.024 122.061l-.989 5.118c-.177.612-.313.892-.729 1.546-1.409.999-2.537 1.625-3.968 2.052-.325-.397-.346-.597-.186-1.078l5.873-7.638z" class="C"/><path fill="#298c1e" d="M105.785 91.483c.251.497.251 1.173.237 2.186-.014.337-.011.348-.234.556l-1.773 2.79c-.015-.011.015.005-.21.211l-1.762 2.794c.005.014-.021.029-.299.072l-1.368.307-.18-.196c1.739-2.891 3.538-5.716 5.588-8.719z"/><path d="M272.715 179.098c2.088 2.099 4.173 4.535 6.316 7.295-2.068-2.104-4.193-4.53-6.316-7.295z" class="D"/><path d="M85.14 288.338c.782.196 1.608.74 2.691 1.45.256.166.215.191.318.504l2.742 4.734-.393.461c-1.859-2.165-3.587-4.483-5.358-7.148zm-8.096-10.977c1.576 1.741 3.219 3.83 4.898 6.257-1.586-1.744-3.209-3.827-4.898-6.257z" class="E"/><path d="M191.056 90.828c.244-.049.491-.073.922-.049-.896 1.795-1.974 3.567-3.336 5.482-.285.142-.25.154-.1-.155l2.514-5.278z" class="F"/><path d="M281.758 190.129c1.029.736 2.083 1.792 3.123 3.082-1.042-.765-2.07-1.763-3.123-3.082z" class="D"/><path d="M82.074 284.362c.939.747 1.911 1.824 2.923 3.221-.936-.75-1.913-1.821-2.923-3.221z" class="E"/><path d="M93.222 298.251c.759-.017 1.636.297 2.514.612l-1.816.348c-.317-.24-.448-.434-.698-.96z" class="J"/><path fill="#295800" d="M204.283 75.633c.708-.404 1.891-.702 3.432-1.074 1.007.024 1.655.121 2.553.44-1.67.394-3.59.567-5.985.635z"/><path d="M218.077 297.115l-.972 2.186c.226-.455.491-1.073.86-1.997.103-.307.029-.276.029-.276l.082.087z" class="D"/><path d="M192.749 152.48c-.103.24-.338.52-.691.881.108-.227.333-.533.691-.881z" class="F"/><path d="M269.252 175.215c.62.299 1.269.876 1.977 1.717-.61-.304-1.279-.871-1.977-1.717z" class="D"/><path d="M208.154 132.149l-1.099.413c.146-.323.439-.729.912-1.221.18-.086.181-.044.154.144s-.049.53-.015.556.049.109.049.109z" class="M"/><path d="M192.947 90.201c-.013-.223.13-.534.393-.96.001.214-.118.543-.393.96z" class="F"/><path d="M134.084 231.732c.132.226.018.607-.039.796-.314-.233-.572-.655-.892-1.32.225-.062.512.118.931.524z" class="J"/><path d="M246.081 201.654c-.002-.206.212-.55.568-.957-.023.231-.188.525-.568.957z" class="Q"/><path d="M280.165 188.225c.315.051.644.334 1.009.837-.308-.055-.652-.33-1.009-.837z" class="D"/><path d="M182.758 105.814c-.115.292-.285.566-.71.951-.192.15-.154.161-.02-.035.304-.443.504-.662.735-.854 0 0 .003-.042-.004-.062z" class="F"/><path d="M76.349 276.748c.106-.322.351-.272.595.134.039.139-.418.022-.595-.134z" class="E"/><path fill="#437819" d="M217.958 297.048a.54.54 0 0 1 .151-.053c.04-.003-.154.071-.19.109s.002-.037.039-.056z"/><path fill="#17a902" d="M244.933 265.846c.613-1.09 1.225-2.181 2.326-3.596 6.734-2.159 9.074-6.693 5.634-10.298.512-.865 1.024-1.729 2.115-2.888 6.227-1.488 8.815-6.227 12.06-10.205 5.88-1.533 6.307-2.294 3.904-7.671-1.891-4.231-.608-7.681 2.999-10.909 5.931.283 11.217 1.018 16.493.945 5.263-.073 9.962-8.823 7.272-13.18-1.789-2.898-.794-4.723 2.035-5.014 2.378-.245 4.955.534 7.309 1.284 1.666.53 3.001 2.087 4.664 2.636 7.965 2.629 9.125 4.085 9.25 12.409.082 5.481-.476 11.078.476 16.405.763 4.273 1.206 7.982-.905 11.947-.763 1.432-.353 3.489-.478 5.261l1.556.452c.887-1.433 1.622-2.999 2.715-4.253.755-.866 2.004-1.301 3.033-1.928.4 1.167 1.439 2.603 1.082 3.453-1.135 2.707-2.748 5.221-4.252 7.765-1.674 2.831-3.673 5.643.973 7.644-.323.803-.646 1.607-1.241 2.839-.44.614-.604.803-.764.996l-5.202 9.01c-.515.599-.692.781-.866.964l-9.961 14.374c-.96 1.158-1.433 1.941-1.906 2.724-.241.289-.482.578-1.258 1.137-4.022 1.611-5.657 4.182-5.593 7.882-1.961 3.867-3.922 7.734-6.466 11.927-2.001 2.552-3.419 4.778-4.836 7.003 0 0-.065.073-.391.175-1.072.705-1.817 1.308-2.563 1.912-.328.799-.656 1.598-1.37 2.805-1.183.994-1.981 1.579-3.178 2.146-3.674-.178-6.812-.977-6.249-5.055.672-4.867-2.136-5.733-5.825-6.882-3.178-.99-6.973-2.432-8.741-4.921-2.386-3.359-4.628-5.396-8.77-5.247-1.115.04-2.568-.14-3.321-.821-3.62-3.273-7.752-3.259-12.199-2.601-3.896.576-5.654-1.604-5.27-5.302.22-2.119 1.423-4.157 1.522-6.262.108-2.304-.548-4.643-.871-6.967 1.237-2.138 2.475-4.277 4.29-6.735 2.111-1.152 4.334-1.602 5.049-2.889 2.215-3.985 3.856-8.289 5.719-12.469z"/><path fill="#17a502" d="M229.611 288.138c.586 2.126 1.242 4.466 1.134 6.769-.098 2.105-1.302 4.143-1.522 6.262-.384 3.698 1.374 5.878 5.27 5.302 4.447-.657 8.578-.672 12.199 2.601.753.681 2.207.861 3.321.821 4.142-.149 6.384 1.888 8.77 5.247 1.767 2.489 5.563 3.93 8.741 4.921 3.689 1.15 6.498 2.015 5.825 6.882-.563 4.077 2.574 4.877 6.069 5.363-.312 2.429-.844 4.531-1.375 6.633-2.45 2.309-4.9 4.618-7.91 7.189-1.051.814-1.542 1.366-2.033 1.917-.606 1.11-1.211 2.221-1.781 3.803.239.702.451.923.672 1.136l-5.083 6.921-1.831 2.098s-.035.044-.397.109c-3.069.966-6.14 1.33-8.407 2.875-4.91 3.348-8.679 9.264-16.05 5.227-1.514-.829-3.631-.476-5.345-1.046-1.512-.503-3.456-1.182-4.154-2.392-2.491-4.321-6.312-5.029-10.679-4.757-5.633.351-11.365.239-16.853 1.333-2.691.537-6.234 2.88-7.077 5.234-1.419 3.963-3.628 4.626-7.054 4.454-4.414-.222-7.177 1.855-8.625 6.037-.534 1.543-1.682 2.873-2.551 4.3l-1.332-.261-.693-3.434-.738-4.01c-1.507.452-3.111.71-4.5 1.399-2.324 1.152-4.511 2.58-6.744 3.574.009-.738.007-1.16.147-1.829.422-.744.702-1.241 1.278-1.909 2.454-3.069 4.613-5.967 6.748-8.889-.024-.024.002.038.285-.144l10.695-14.846c-.02-.015.023.003.307-.177l20-25.912c2.376-1.763 4.403-3.436 6.431-5.109.088-.393.177-.786.472-1.643.399-.693.579-.933.747-1.182 0 0 .008-.012.285-.168 1.073-1.107 1.869-2.059 2.665-3.011.825-.828 1.65-1.656 3.091-2.401 7.219 2.458 10.294 1.384 10.891-3.85 1.64-4.521-1.452-5.97-4.18-7.629.095-.421.189-.841.584-1.763l1.674-3.084s.07-.032.102-.054l8.513-8.911z"/><path fill="#16ae02" d="M325.441 265.885c-4.894-1.782-2.895-4.594-1.221-7.425 1.504-2.544 3.118-5.057 4.252-7.765.356-.85-.682-2.286-1.082-3.453-1.028.628-2.278 1.062-3.033 1.928-1.093 1.254-1.827 2.82-2.715 4.253l-1.556-.452c.125-1.772-.285-3.829.478-5.261 2.111-3.965 1.668-7.674.905-11.947-.951-5.327-.393-10.924-.476-16.405-.125-8.323-1.285-9.78-9.25-12.409-1.664-.549-2.999-2.106-4.664-2.636-2.354-.75-4.931-1.529-7.309-1.284-2.829.291-3.824 2.116-2.035 5.014 2.69 4.357-2.009 13.107-7.272 13.18-5.276.073-10.563-.662-16.238-1.176 3.525-6.955 7.443-13.776 12.054-20.834 5.966-.172 11.283-.508 16.499.074 5.006.558 7.561-1.175 8.614-6.083 1.78-.131 3.149-.216 4.992-.282 8.947-.008 17.43.2 25.891-.131 7.434-.291 14.845-1.185 22.266-1.813.415 2.178 1.589 4.553 1.085 6.492-.974 3.745-2.895 7.244-4.47 11.218l-11.439 17.248-16.445 25.895c-2.748 4.477-5.069 9.215-7.831 14.054z"/><path d="M158.866 380.965l6.755-3.891c1.39-.689 2.993-.947 4.5-1.399l.738 4.01.693 3.434 1.332.261c.868-1.427 2.016-2.757 2.551-4.3 1.448-4.181 4.211-6.259 8.625-6.037 3.426.172 5.635-.491 7.054-4.454.843-2.354 4.386-4.697 7.077-5.234 5.488-1.095 11.22-.982 16.853-1.333 4.367-.272 8.188.436 10.679 4.757.698 1.21 2.642 1.889 4.154 2.392 1.714.57 3.831.217 5.345 1.046 7.371 4.036 11.14-1.879 16.05-5.227 2.267-1.545 5.338-1.91 8.385-2.858.107.422-.126.893-.505 1.619-.147.255-.192.298-.192.298-1.811 2.835-3.623 5.67-5.735 8.402-.965-.917-1.629-1.731-2.293-2.545-2.158 1.885-4.824 3.464-6.231 5.801-.586.973 1.513 3.562 2.391 5.416-.783 4.11-3.463 5.883-7.444 5.882-21.726-.007-43.458.235-65.172-.271-5.394-.126-10.732-2.705-16.176-4.631.113-.717.328-.936.565-1.135z" class="E"/><path fill="#10f206" d="M122.182 327.28c.399-.019.798-.039 1.651.124.669.372.89.557 1.406.911 1.901.41 3.517.874 5.122.844l53.811-1.129c1.489-.031 3.224-.284 4.398.369.953.53 2.063 2.782 1.686 3.386-3.237 5.19-6.797 10.178-10.636 15.287-6.01 2.355-13.037 1.913-16.586 8.373-.303.551-1.424.869-2.188.915-7.187.428-14.477 3.647-21.516-.848-.878-.561-2.257-.337-3.545-.804-1.283-4.396-2.997-7.947-7.757-9.141l.676-10.157-5.125 3.049c0 0-.186-.183-.273-.676-.142-1.238-.196-1.983-.221-2.928-.244-.772-.517-1.344-.813-2.322l-.09-5.254z"/><path fill="#0fe705" d="M135.926 355.034c1.147.14 2.526-.083 3.405.477 7.038 4.495 14.329 1.277 21.516.848.764-.046 1.886-.364 2.188-.915 3.549-6.46 10.575-6.018 16.406-8.072-.332 2.048-.859 3.854-1.387 5.66 0 0-.044-.018-.348.104-3.754 5.055-7.204 9.988-10.653 14.922 0 0-.026-.062-.324.078-2.439 3.075-4.58 6.009-6.721 8.944-.28.497-.561.994-1.365 1.716-2.929-.705-5.441-1.43-7.713-2.615-3.033-1.583-5.878-3.523-8.804-5.31-.219-.222-.426-.456-.732-1.057-.111-.357-.056-.703.182-.809 2.568-4.458-1.02-5.371-4.031-6.894l-2.54-.5c-.164-.1-.301-.229-.539-.88-.205-1.222-.282-1.951-.157-2.9.674-1.078 1.146-1.938 1.617-2.797z"/><path fill="#17a502" d="M247.318 381.077c-1.103-1.811-3.201-4.4-2.616-5.373 1.407-2.337 4.073-3.916 6.231-5.801l2.043 2.764c-.878 1.812-1.806 3.303-3.128 5.264l-1.856 3.022c0 0-.45.081-.675.124z"/><path d="M135.785 354.708c-.331 1.186-.802 2.045-1.687 2.863-1.441-.867-2.47-1.692-3.498-2.518l-1.766-4.601-.914-4.364.101-.109c4.767.782 6.48 4.333 7.764 8.729z" class="K"/><path d="M142.289 371.165l8.641 5.016c2.272 1.186 4.784 1.91 7.571 2.863.384.444.386.866.377 1.604-.248.515-.463.735-.789 1.166-6.997-.83-11.142-5.85-15.799-10.65z" class="B"/><path d="M123.566 338.739c1.358-1.079 2.702-1.879 5.139-3.329l-.676 10.157c-.007.412-.074.485-.416.463l-1.581-.271-1.089-2.632-.98-2.48-.397-1.907zm14.34 23.436c2.649 1.459 6.237 2.372 3.383 6.786-.713.035-.902.009-1.091-.017-.353-.367-.705-.733-1.194-1.728l-1.098-5.041z" class="K"/><path d="M298.661 305.87c-.323-3.539 1.311-6.11 5.133-7.523-1.402 2.406-3.138 4.884-5.133 7.523zm-20.368 32.856c.282-1.888.813-3.99 1.524-6.401a19.19 19.19 0 0 1 2.852-2.167c-1.19 2.716-2.658 5.535-4.376 8.568zm9.048-13.975a66.18 66.18 0 0 1 4.344-6.562c-1.146 2.055-2.624 4.203-4.344 6.562z" class="E"/><path d="M137.545 362.111c.683 1.535 1.004 3.006 1.352 4.872-1.24-1.281-2.507-2.957-3.833-5.003.667-.224 1.393-.078 2.481.131zm-15.7-34.816c.36 1.6.382 3.216.11 5.345-.502.591-.71.67-.918.748l-1.444-4.01c.583-.943 1.249-1.506 2.252-2.084zm8.863 28.102c.92.482 1.948 1.307 3.187 2.393.288.989.364 1.719.503 2.816-1.153-1.377-2.367-3.121-3.69-5.209zm-4.628-9.275c.366-.28.779-.197 1.5-.056.609 1.27.911 2.481 1.278 4.075-.866-.963-1.798-2.31-2.777-4.02z" class="B"/><path d="M121.062 333.63c.182-.319.39-.398.915-.583.591.465.864 1.037.821 1.77-.695.106-1.074.052-1.453-.003-.113-.307-.199-.622-.283-1.184z" class="K"/><path d="M248.212 380.753c.268-.65.756-1.501 1.478-2.533-.263.657-.761 1.495-1.478 2.533z" class="E"/><path d="M121.369 335.145c.356-.276.735-.222 1.4-.128.34.784.395 1.53.479 2.651-.599-.48-1.228-1.336-1.879-2.523z" class="B"/><path d="M284.413 326.937c.479-.494 1.224-1.097 2.259-1.77-.471.507-1.232 1.084-2.259 1.77zm-16.079 20.957c.258-.4.749-.952 1.485-1.64-.254.405-.753.947-1.485 1.64zm-8.025 13.958c.245-.403.721-.957 1.429-1.662-.245.403-.721.957-1.429 1.662zm45.159-65.017c.259-.607.732-1.39 1.405-2.358-.264.604-.727 1.393-1.405 2.358z" class="E"/><path d="M124.007 340.994c.226.28.497.908.864 1.861-.209-.288-.514-.901-.864-1.861zm16.327 28.129c.054-.153.243-.127.718-.057.286.044.231.39.2.562-.318.06-.568-.105-.917-.505z" class="B"/><path d="M266.845 352.808c-.074-.036-.286-.257-.637-.663.076.034.289.255.637.663zm-7.817 11.173c.022-.023-.022.091-.045.078s.023-.056.045-.078zm58.235-84.194c.032-.058.209-.239.522-.552-.025.064-.197.25-.522.552zm6.058-9.981c.027-.06.191-.249.487-.571-.022.064-.183.256-.487.571z" class="E"/><path fill="#18b102" d="M169.028 122.042l-6.142 7.632c-2.612.745-4.771 1.571-6.946 1.614-1.784.035-4.711-1.752-5.167-1.176-1.331 1.682-1.678 4.142-2.411 6.296l1.69-.425 4.933 5.258-.111 3.793-1.783 1.099c-.995 1.165-1.502 2.04-2.01 2.915l-2.193 2.906-3.73 5.111c-3.556 5.167-7.111 10.334-11.145 15.716-.658.185-.837.155-1.214-.149-1.142-1.188-1.927-2.497-3.057-2.955-8.832-3.575-15.808-9.343-21.673-16.826-2.501-3.191-5.989-5.679-9.289-8.137-1.114-.829-3.177-1.115-4.554-.735-6.699 1.847-14.153-2.455-15.402-9.156l17.235-25.662c2.299-3.345 4.132-6.23 5.964-9.116 0 0 .026-.015.27-.207.741-1.069 1.239-1.945 1.737-2.821 0 0-.031-.016.241-.18.761-1.05 1.25-1.937 1.739-2.823 2.296-2.609 4.803-5.046 6.816-7.839l30.856-43.245 19.823-27.265c5.062 6.888 9.701 13.657 14.304 20.443-.037.017-.047.098-.047.098l16.097 26.107c2.193 3.5 4.637 6.842 7.178 10.551-3.488 3.847-7.377 7.23-10.771 11.053-1.015 1.143-.649 3.513-1.096 5.972-1.171 2.849-2.162 5.046-3.154 7.244-.216.183-.42.377-.943.889-.559.522-.773.754-.967 1.003-.056.374-.111.748-.48 1.6l-5.573 7.523c-.068.334-.136.669-.445 1.461l-1.361 2.503c0 0-.133.381-.382.738-.482.586-.685.838-.859 1.115 0 0-.039-.013-.331.171-2.069 2.741-3.847 5.298-5.625 7.854a.28.28 0 0 0-.022.051z"/><path fill="#10f906" d="M274.999 71.958c-.444.007-.889.014-1.821-.298-3.623-5.068-8.481-3.417-12.797-3.537l-27.836-.442c-2.542.007-5.081.924-7.621 1.423l-17.504 1.475c.036-1.804.379-3.384.437-3.652-3.487-2.932-6.094-5.408-9.001-7.458-1.676-1.182-3.837-1.675-5.78-2.478l-9.101-15.922c-.22-3.693.604-7.081-.537-9.568-2.885-6.289.554-7.84 5.461-9.003 1.605-.38 3.089-1.287 4.698-1.632 7.78-1.671 15.508-3.399 23.412-.11 3.503 1.458 7.385 1.999 11.085 2.989 2.332.624 5.056.742 6.899 2.067 8.54 6.14 8.871 6.116 11.434-3.963l2.049-.265s.295.059.514.424c.479.923.739 1.481 1.007 2.447.68 9.004 2.715 10.417 9.101 6.844 3.459 4.057 6.712 7.848 9.781 11.917-2.822 5.228-2.55 5.577 4.244 6.118 1.738 3.748 3.335 7.167 4.734 10.851-4.815 3.24-2.496 7.817-2.857 11.775z"/><path fill="#12f007" d="M246.016 21.884c-2.153 10.043-2.484 10.066-11.025 3.927-1.843-1.325-4.567-1.443-6.899-2.067-3.701-.991-7.582-1.532-11.085-2.989-7.904-3.289-15.632-1.561-23.412.11-1.608.345-3.093 1.252-4.698 1.632-4.907 1.163-8.346 2.714-5.461 9.003 1.141 2.487.318 5.875.411 9.25-1.798-1.178-3.618-2.754-5.763-4.436-.324-.107-.313-.187-.345-.554-2.679-4.939-5.347-9.501-7.968-14.088-2.275-3.981-1.692-5.771 2.707-6.82 3.836-.915 7.82-1.188 11.708-1.91 2.371-.44 4.684-1.191 7.022-1.802.351-.013.701-.025 1.578.198 9.466.057 18.406-.122 27.346-.301.385.006.77.011 1.691.291l19.311 5.712s.284.115.55.48c1.621 1.698 2.976 3.031 4.33 4.363z"/><path d="M190.729 11.07c-1.859.681-4.171 1.433-6.542 1.872-3.888.721-7.872.994-11.708 1.91-4.399 1.049-4.982 2.839-2.707 6.82l8.006 14.071-14.03-20.268c8.345-4.058 17.354-4.709 26.981-4.406z" class="B"/><path fill="#12f007" d="M275.411 71.965c-.051-3.965-2.37-8.542 2.721-11.634 1.035.176 1.596.47 2.157.764 0 0 .108.144.121.228.163 1.563.052 3.128.509 4.506 1.631 4.912-.578 6.437-5.508 6.137z"/><path d="M219.741 10.87a582.81 582.81 0 0 1-26.691.473c8.591-.366 17.445-.503 26.691-.473zm49.322 32.066l-9.976-11.945c-.261-.973-.307-1.376-.25-1.867l.303-.269c3.964 4.517 7.928 9.034 11.641 13.871-.74.283-1.229.247-1.719.21zm-28.185-26.149c-6-1.559-12.258-3.372-18.765-5.434 6.003 1.56 12.255 3.371 18.765 5.434zm39.412 43.905c-.562.11-1.123-.184-1.96-.626-1.873-3.567-3.47-6.985-5.296-11.072-.362-1.604-.495-2.54-.628-3.476l7.884 15.175z" class="B"/><path d="M272.354 45.251l.538 3.413c-6.564.128-6.836-.222-4.014-5.45.674-.241 1.164-.205 2.025-.152.714.652 1.057 1.287 1.451 2.189z" class="N"/><g class="B"><path d="M249.988 24.046l-.862-1.976c2.459 1.244 5 2.79 7.674 4.681.133.345.007.488-.336.408l-6.477-3.113zm-3.562-2.199c-1.764-1.296-3.119-2.629-4.6-4.265 2.009.945 4.144 2.194 6.464 3.722-.362.354-.908.43-1.864.543z"/><path d="M256.998 27.024c.643.412 1.221.894 1.971 1.604.171.227-.031.407-.345.32-.815-.628-1.316-1.169-1.817-1.711l.191-.214z"/></g><path fill="#11f206" d="M44.029 219.968c-.639-1.428-1.278-2.856-1.738-4.829 1.708-2.182 4.799-2.683 3.4-6.295-1.036-2.676-1.155-5.708-1.682-8.581l41.405.149c-1.371 2.161-2.991 4.14-4.963 5.661-1.94 1.497-4.585 2.197-6.228 3.911-.794.828-.505 4.37.158 4.652 4.905 2.088 10.076 3.541 15.063 5.454 2.435.934 6.264 2.041 6.671 3.739 1.19 4.958 4.031 7.296 8.509 8.569 1.086.309 2.388.851 2.964 1.708.702 1.042 1.138 2.614.89 3.788-.113.537-2.152.975-3.287.911-1.302-.073-2.57-.752-3.852-1.168l-.651 1.175c2.964 2.373 6.579 4.277 8.716 7.246 2.291 3.183 3.191 7.368 4.659 11.47-.608 4.396-3.183 6.593-7.044 7.475-1.563-2.596-2.424-5.611-4.421-7.064-7.664-5.573-15.676-10.67-23.597-15.886-2.064-1.359-4.296-2.46-6.398-3.764-2.046-1.27-4.162-2.484-6.004-4.014-4.245-3.525-7.113-9.02-13.596-9.521-.009-.422-.012-.591-.135-1.064-1.359-1.427-2.597-2.55-4.012-3.889-1.727-.089-3.278.04-4.828.168z"/><path d="M114.103 257.172c-1.507-3.747-2.407-7.932-4.697-11.115-2.136-2.969-5.751-4.873-8.716-7.246l.651-1.175c1.283.416 2.55 1.095 3.852 1.168 1.135.064 3.174-.373 3.287-.911.247-1.174-.189-2.746-.89-3.788-.576-.856-1.878-1.399-2.964-1.708-4.478-1.272-7.32-3.611-8.509-8.569-.407-1.698-4.236-2.805-6.671-3.739-4.987-1.913-10.157-3.366-15.063-5.454-.663-.282-.952-3.824-.158-4.652 1.643-1.714 4.288-2.414 6.228-3.911 1.972-1.522 3.592-3.5 5.426-5.621 8.006-.417 15.952-.488 23.898-.569 3.32-.034 5.291 1.322 6.794 4.562 3.325 7.168 7.218 14.075 10.96 21.045 2.562 4.772 4.675 9.538 1.654 15.284-.042.371-.111.321-.481.345-1.448.954-2.665 1.766-3.578 2.836l-11.022 13.217z" class="N"/><path fill="#0fed04" d="M53.01 225.007c6.477.248 9.346 5.742 13.59 9.267 1.843 1.53 3.958 2.744 6.004 4.014 2.102 1.305 4.334 2.405 6.398 3.764 7.921 5.216 15.933 10.313 23.597 15.886 1.997 1.452 2.858 4.468 4.391 7.439-3.195 6.721-6.541 12.767-10.006 18.471-.887-2.759-.911-6.092-2.556-7.426-5.991-4.861-12.687-8.848-18.758-13.621-1.918-1.508-2.638-4.493-4.037-6.72-1.432-2.279-2.542-5.445-4.648-6.473-4.453-2.174-6.165-4.899-5.475-9.79.239-1.694-1.139-3.615-1.34-4.187l-5.416 3.503-.067-1.77c-1.594-1.878-3.15-3.114-4.705-4.35-.324-.778-.648-1.556-.787-2.872 1.395-2.07 2.604-3.603 3.814-5.136z"/><path fill="#10e409" d="M54.791 239.497c1.575-1.405 3.186-2.447 5.38-3.866.201.571 1.579 2.493 1.34 4.187-.69 4.891 1.022 7.616 5.475 9.79 2.105 1.028 3.216 4.194 4.648 6.473 1.399 2.227 2.12 5.212 4.037 6.72 6.071 4.773 12.767 8.76 18.758 13.621 1.645 1.335 1.669 4.667 2.61 7.704.464 1.322.755 2.023 1.046 2.724-.302.567-.604 1.135-1.231 2.098l-.826.974c-.596.914-1.191 1.828-2.272 2.89-1.248-.191-2.01-.531-2.917-1.031a7.08 7.08 0 0 0-1.007-.922c-.749-.407-1.267-.643-1.785-.88 0 0 .041-.024.048-.047-.619-1.541-.978-3.251-1.912-4.547l-19.496-26.753c-4.231-6.062-7.923-12.501-11.893-19.134z"/><path d="M57.304 197.981c-3.903-.35-7.333-.575-10.73-1.041-2.054-.282-4.056-.94-6.35-1.697-.071-.481.128-.693.862-.987 1.353.065 2.17.334 2.989.339l64.843.309c2.403.01 4.806-.092 7.209-.142l-.891 2.79-57.932.428z" class="L"/><path d="M43.607 200.224c.93 2.911 1.049 5.943 2.085 8.619 1.398 3.612-1.693 4.113-3.478 5.964-1.571-2.58-3.301-5.258-4.11-8.191-1.456-5.273-.568-6.153 5.503-6.392zm9.397 24.529c-1.204 1.786-2.414 3.319-3.874 5.079-1.799-2.906-3.348-6.038-5-9.517 1.449-.475 2.999-.603 4.828-.196 1.529 1.648 2.779 2.761 4.03 3.874l.015.76zm-2.84 8.534a36.89 36.89 0 0 1 4.572 3.799c-1.406-.933-2.899-2.23-4.572-3.799z" fill="#10e409"/><path fill="#11f607" d="M349.015 164.102s.095.213.158.713c-1.346 7.037 1.824 10.214 7.935 11.234 0 0 .083.253.084.792 1.278 2.432 2.555 4.327 3.833 6.221 0 0 .107.286.038.838-1.142 1.661-2.081 3.533-3.313 3.751-5.675 1.007-11.428 2.111-17.159 2.147-11.859.075-23.722-.505-35.717-1.129-2.1-2.086-4.067-3.858-6.843-6.36 4.44-.484 8.204-.894 12.076-.98 4.136 5.707 7.5 6.643 11.625 3.502 4.598-3.501 9.281-6.903 13.713-10.604 1.378-1.151 3.234-3.523 2.855-4.67-1.564-4.733 1.03-7.565 3.963-10.437.778.364 1.298.606 2.076 1.033l4.677 3.949z"/><path fill="#15f706" d="M315.283 115.956s.096.252.032.821c-.12 1.432-.175 2.295-.543 3.34-2.212.467-4.538 1.599-5.939.894-7.873-3.96-16.226-3.759-24.644-3.773-2.73-.005-5.458-.801-8.132-1.54.498-2.81-.023-4.305-3.051-3.469-5.428 1.499-10.829 3.133-16.323 4.341-6.181 1.358-12.453 2.307-18.685 3.178a24.64 24.64 0 0 0-.021-1.127c-1.188-5.606 2.816-6.574 6.277-8.1 2.32-1.023 4.528-2.296 6.787-3.458 1.348-.294 2.696-.589 4.692-.823.857.121 1.065.182 1.405.342.715-.042 1.298-.183 2.099-.476.493-.373.77-.594 1.046-.815l12.421.037c3.993.38 7.142.654 10.515 1.14 2.071.145 3.917.077 5.837-.12.073-.13.198-.4.198-.4 1.868.106 3.736.212 6.211.5.895.427 1.182.672 1.686 1.174 4.813 1.24 9.409 2.223 14.006 3.206 0 0 .129-.083.029.207-2.395 5.185 2.08 3.939 4.1 4.921z"/><path d="M305.007 188.982c11.862.311 23.725.892 35.584.816 5.732-.036 11.484-1.14 17.159-2.147 1.232-.218 2.17-2.09 3.342-3.601 1.174 1.784 2.25 3.969 3.388 6.541-7.359 1.015-14.77 1.909-22.204 2.2-8.461.331-16.944.124-26.268-.002l-27.053-.704c-1.5-1.194-2.999-2.388-4.274-3.801 6.926.087 13.626.393 20.326.699z" class="G"/><path d="M250.662 107.026c-1.881 1.197-4.09 2.471-6.41 3.493-3.461 1.526-7.465 2.494-6.58 7.998-1.597-.107-2.911-.471-5.863-1.291 1.757 3.45 2.295 6.208 3.958 7.406 3.203 2.307 3.896 4.962 2.873 8.241-1.618-1.832-3.334-3.278-4.259-5.12-2.425-4.827-7.699-8.322-6.979-14.637l4.497-1.956c.704-.456.912-.672 1.088-.919a1.49 1.49 0 0 0 .415.006c.26-.027.619-.094.619-.094l3.857-1.031c.822-.142 1.023-.163 1.224-.185.397-.022.795-.044 1.719-.184.812-.308 1.097-.499 1.381-.689l8.461-1.04z" class="O"/><path d="M227.015 113.145c-.334 6.286 4.94 9.782 7.366 14.609.926 1.842 2.641 3.288 4.271 5.104.274.19.281.197.375.522 1.067 2.073 2.04 3.821 2.876 5.708-.137.139-.402.426-.402.426-.597-.098-1.194-.195-2.438-.459-2.199-1.311-4.071-2.196-5.246-3.647-4.325-5.338-8.418-10.863-12.598-16.317l2.98-5.318c.917-.385 1.674-.493 2.817-.629z" class="H"/><path d="M315.085 119.935l.227-3.023c5.107 5.868 10.231 12.11 15.162 18.502 2.119 2.747 3.835 5.803 5.444 9.037-1.808.048-3.326-.222-4.909-.863-3.052-9.698-9.55-16.634-15.924-23.654z" class="G"/><path d="M331.073 143.96l4.955.826c.872.545 1.344 1.073 1.804 2.081.469 1.229.95 1.977 1.431 2.726 0 0-.052.211.025.456a3.65 3.65 0 0 0 .751.897s-.037.052.21.181l1.687.93c.117.305.194.621.345 1.49.655 1.16 1.197 1.774 1.738 2.389 0 0 .062 0 .045.428l.015 3.604-2.089-1.04c-4.974-4.504-10.219-8.124-10.917-14.967z" class="N"/><path d="M357.024 175.699c-6.027-.67-9.197-3.847-7.831-10.769 2.554 3.216 5.15 6.817 7.831 10.769z" class="G"/><path d="M311 110.507c-4.442-.662-9.038-1.645-13.545-3.025.295-.486.5-.575.705-.665 4.229 1.123 8.457 2.246 12.84 3.69zm4.248 5.095c-1.984-.627-6.46.618-3.991-4.545 1.434 1.218 2.695 2.704 3.991 4.545z" class="O"/><path d="M344.338 160.154c-.269-1.245-.279-2.303-.276-3.759 1.621 2.065 3.228 4.527 4.893 7.348-1.414-.895-2.886-2.149-4.618-3.589z" class="G"/><path d="M282.993 106.255l-9.848-.964 8.98-.455 2.689.039 4.081.914c.358.159.233.429-.26.471-2.209.026-3.925.011-5.641-.005z" class="H"/><path d="M360.949 182.718c-1.202-1.55-2.479-3.444-3.748-5.744 1.23 1.53 2.451 3.465 3.748 5.744zm-21.735-33.416c-.432-.457-.913-1.206-1.27-2.186.49.477.855 1.186 1.27 2.186z" class="G"/><path d="M257.005 106.481l-.934-.3c.938-.393 2.184-.67 3.82-.919.114.249-.163.47-.995.845l-1.892.374z" class="H"/><path d="M343.92 155.642c-.442-.321-.984-.935-1.638-1.851.438.318.988.937 1.638 1.851z" class="G"/><path d="M284.609 104.794c-.43.067-1.064.053-2.011.018.394-.047 1.1-.073 2.011-.018z" class="C"/><path d="M297.862 106.696c.093.211-.112.3-.623.53-.593-.105-.881-.35-1.375-.79.429-.084 1.065.027 1.999.26z" class="H"/><path d="M341.745 151.848c-.289-.058-.769-.325-1.475-.747.277.075.781.307 1.475.747z" class="G"/><path d="M238.95 108.902c-.05.057-.25.079-.755.111-.015-.124.288-.176.755-.111zm3.016-.731c-.049.085-.333.276-.847.581.051-.082.331-.279.847-.581zm-8.039 1.949c.093.034-.266.102-.448.111-.026-.125.153-.176.448-.111zm-1.122.256c.005.113-.202.329-.626.65-.001-.108.208-.325.626-.65z" class="H"/><path d="M339.94 150.723c-.134.015-.358-.202-.733-.601.172-.086.436.098.733.601z" class="G"/><path fill="#17a902" d="M310.982 193.25c-.642 4.862-3.197 6.596-8.203 6.037-5.215-.582-10.533-.247-16.268-.323.438-1.593 1.339-3.176 2.301-5.033.06-.274.217-.551.74-.674l21.431-.007z"/><path d="M266.949 238.543c-3.125 4.295-5.714 9.034-11.719 10.313 2.917-5.529 6.19-11.142 9.463-16.756l1.084.268 1.171 6.175zm-22.315 27.463c-1.565 4.02-3.206 8.324-5.42 12.309-.715 1.287-2.938 1.736-4.844 2.626 3.073-4.887 6.519-9.831 10.264-14.935zm8.021-13.823c3.678 3.375 1.338 7.909-5.278 9.778 1.433-3.16 3.236-6.354 5.278-9.778z" class="I"/><path d="M225.197 69.363c2.267-.758 4.806-1.675 7.348-1.682 9.279-.027 18.56.184 27.836.442 4.316.12 9.174-1.531 12.464 3.534-14.133-.002-28.421-.281-42.705-.696-1.568-.046-3.113-.874-4.942-1.599zm-31.948-12.089c1.769.52 3.93 1.013 5.606 2.194 2.907 2.05 5.514 4.527 9.001 7.458l-.804 3.765c-4.06.616-6.531-1.38-8.353-4.797-1.543-2.894-3.502-5.566-5.451-8.62z" class="N"/><path d="M217.237 74.403c-.475.133-1.129.114-2.1-.007.429-.116 1.175-.131 2.1.007z" class="P"/><path fill="#17a702" d="M116.4 194.768l-7.482.137-64.843-.309c-.819-.005-1.637-.274-2.838-.496 2.613-5.746 5.228-11.662 8.686-17.034 6.911-10.736 14.284-21.175 21.884-31.771 1.578-.39 2.739-.744 3.9-1.099l-1.895-2.298 4.779-6.834c1.481 6.464 8.935 10.767 15.634 8.919 1.377-.38 3.44-.094 4.554.735 3.3 2.458 6.788 4.945 9.289 8.137 5.865 7.483 12.841 13.251 21.673 16.826 1.13.457 1.915 1.766 2.891 3.247-.476 1.803-.983 3.039-1.49 4.276-.048.386-.095.772-.346 1.614-.419.683-.619.924-.803 1.178-1.486 1.542-2.971 3.084-5.023 4.952-2.779 3.5-4.991 6.675-7.203 9.849l-1.368-.029z"/><path d="M101.745 100.091c-1.555 2.842-3.387 5.727-5.524 8.771 1.092-2.511 2.488-5.182 4.02-8.158.499-.394.863-.482 1.504-.613z" class="C"/><path fill="#18b102" d="M73.604 142.109c.841.553 1.473 1.319 2.104 2.085-1.161.355-2.322.709-3.656.867.332-1.044.837-1.892 1.552-2.952z"/><path d="M155.093 140.955l-5.042-4.971-1.69.425c.733-2.155 1.08-4.615 2.411-6.296.456-.576 3.383 1.211 5.167 1.176 2.175-.043 4.334-.869 6.765-1.333.286.224.308.424.364.925-.548 1.072-1.131 1.843-2.02 3.101l-1.035 2.013-3.014 2.871-1.907 2.09zm-36.983 53.757c1.87-3.091 4.082-6.265 6.608-9.564-1.879 3.077-4.073 6.279-6.608 9.564z" class="L"/><path d="M154.984 141.242c.638-.821 1.167-1.354 1.904-2.085-.366 1.685-.938 3.566-1.763 5.663-.251-.954-.25-2.122-.141-3.578z" class="C"/><path d="M145.413 156.876a37.25 37.25 0 0 1 3.34-4.644c-.815 1.411-1.949 2.932-3.34 4.644zm-13.989 20.155c.225-1.065.732-2.302 1.405-3.831.346-.263.525-.233.974-.155-.52 1.304-1.308 2.559-2.379 3.986zm19.882-28.185c.282-.671.789-1.546 1.559-2.593-.269.682-.801 1.536-1.559 2.593z" class="L"/><path d="M160.172 135.76c.085-.274.328-.783.713-1.536-.091.27-.323.786-.713 1.536z" class="C"/><path d="M130.159 179.828c.019-.087.219-.327.6-.721-.02.086-.22.327-.6.721z" class="L"/><path fill="#179f02" d="M128.828 242.958l6.178-2.539c2.432 3.364-1.111 3.789-2.39 5.596-2.683 3.79-5.796 7.725-6.904 12.068-1.342 5.261 2.382 7.685 7.47 6.079 1.668-.526 3.563-.49 5.348-.452 4.44.095 8.888.619 13.312.442 4.086-.164 6.947.583 8.668 4.87.786 1.957 3.131 4.045 5.162 4.58 3.599.948 7.498.756 10.913 1.014 4.198-8.924 9.732-15.896 19.469-18.268 1.115 1.825 2.156 3.315 3.196 4.805-3.15 4.243-6.3 8.486-10.066 12.742-2.508.809-4.554 1.371-6.243 2.478-1.268.831-2.076 2.362-3.089 3.582l4.07 3.077.079.671c-3.678 5.136-8.781 6.375-14.71 6.945-14.893 1.432-29.733 3.454-44.565 5.456-3.07.414-6.014 1.766-9.362 2.804-7.158.383-8.96-6.005-12.836-9.57-.438-.403.595-3.207 1.617-4.22 1.847-1.829 3.316-3.32.924-6.284 7.851-12.332 15.806-24.103 23.76-35.874z"/><path d="M178.338 352.854c.244-1.626.771-3.432 1.478-5.54 3.643-5.35 7.203-10.339 10.44-15.529.377-.604-.733-2.856-1.686-3.386-1.174-.653-2.909-.399-4.398-.369l-53.811 1.129c-1.606.03-3.221-.434-5.1-1.085-.268-.416-.23-.897-.23-.897l27.76-1.687 43.393.587 1.805.954-19.652 25.822z" class="K"/><path d="M222.891 309.931c-.569 4.882-3.644 5.956-10.564 3.424.905-2.666 2.127-5.175 3.626-7.652 2.497 1.431 4.718 2.829 6.938 4.228zm-26.97 16.019l-42.722-.507 42.318-.174c.45.247.404.681.404.681z" class="L"/><path d="M222.918 309.579c-2.248-1.046-4.468-2.445-6.777-4.166.646-1.263 1.38-2.203 2.356-3.303 2.969 1.5 6.061 2.948 4.421 7.469z" class="D"/><path d="M196.185 326.077c-.264-.127-.218-.561-.2-.778l8.477-3.314-6.124 4.957c-.862-.186-1.376-.462-2.153-.865zm12.468-10.097c-.513.802-1.309 1.754-2.378 2.855.516-.803 1.305-1.754 2.378-2.855z" class="C"/><path d="M220.771 297.296c-.232.668-.69 1.529-1.38 2.575.231-.671.692-1.527 1.38-2.575z" class="D"/><path d="M124.765 327.173c.267.004.229.484.206.726-.248.062-.469-.123-.84-.465.019-.189.193-.227.634-.261z" class="B"/><path d="M205.835 319.174c-.015.084-.195.323-.538.719.013-.085.192-.325.538-.719z" class="C"/><path d="M128.874 242.637l-24.046 35.965c-2.173 2.844-4.209 5.359-6.494 8.061-.541-.514-.831-1.215-1.176-2.194l10.014-18.793c3.711-1.555 6.285-3.753 6.893-8.149 3.704-4.767 7.336-9.209 11.06-13.571.914-1.07 2.131-1.882 3.557-2.873.312.371.275.802.192 1.555z" class="B"/><path fill="#2ec21e" d="M88.149 290.292c.414-.077.932.159 1.826.726l1.006.924 2.577 1.133c-.55.76-1.39 1.406-2.448 2.002-1.099-1.524-1.978-2.997-2.961-4.784z"/><path d="M96.179 289.801c.014-.074.181-.267.476-.6.017.095-.133.302-.476.6z" class="B"/><path d="M195.978 256.013c-9.661 2.707-15.195 9.678-19.393 18.603-3.414-.258-7.314-.066-10.913-1.014-2.031-.535-4.376-2.623-5.162-4.58-1.721-4.287-4.582-5.033-8.668-4.87-4.424.177-8.872-.347-13.312-.442-1.785-.038-3.68-.074-5.348.452-5.088 1.605-8.812-.818-7.47-6.079 1.108-4.342 4.22-8.277 6.904-12.068 1.279-1.807 4.823-2.231 2.603-5.833 1.084-2.41 2.349-4.658 3.698-6.853 1-1.626 2.11-3.185 3.118-5.042 4.448-6.138 8.95-12.007 14.013-17.914 9.058 6.181 9.054 6.178 3.99 12.362-.141.172.056.621.142 1.33 2.069-.236 4.129-.587 6.202-.688 7.775-.378 8.438-.8 9.64-8.361.676-4.249 2.82-6.939 7.13-6.824 5.27.141 7.769-1.989 8.778-7.209.949-4.906 3.521-5.389 7.439-2.022 1.134.974 1.986 2.519 3.272 3.021 2.422.945 5.185 2.129 7.594 1.775 5.857-.862 11.517-2.22 15.539 4.579.449-9.519 9.691-14.795 18.37-11.244-1.032 2.043-2.064 4.086-3.12 6.484-.023.354-.062.4-.414.496-2.017 1.755-3.854 3.278-5.309 5.105a111.58 111.58 0 0 0-6.519 9.089c-1.381 2.146-2.381 4.537-3.551 6.818 0 0-.05.056-.36.259-1.817 2.989-3.323 5.775-4.83 8.561 0 0-.064.075-.399.236-1.767 2.366-3.198 4.572-4.629 6.777 0 0-.057.024-.08.046-1.316.916-2.983 1.547-3.834 2.753-2.708 3.838-5.113 7.89-8.122 11.992-1.952-1.073-3.416-2.279-5.467-3.967l-1.532 4.271z" class="I"/><path fill="#17ab02" d="M244.385 196.877c-8.919-3.335-18.161 1.941-18.61 11.46-4.022-6.799-9.681-5.441-15.539-4.579-2.409.355-5.172-.83-7.594-1.775-1.286-.502-2.138-2.046-3.272-3.021-3.919-3.367-6.49-2.884-7.439 2.022-1.009 5.22-3.508 7.35-8.778 7.209-4.31-.115-6.455 2.574-7.13 6.824-1.202 7.561-1.865 7.983-9.64 8.361-2.073.101-4.133.451-6.202.688-.087-.709-.283-1.157-.142-1.33 5.064-6.184 5.069-6.18-3.719-12.559 1.516-3.37 3.323-6.579 5.739-10.076 4.449-1.035 4.893-3.929 4.914-7.091 0 0 .003-.026.26-.217.752-1.073 1.246-1.955 1.74-2.838.264-.496.527-.993 1.242-1.865 7.598-4.349 11.209-10.929 13.689-18.342 1.192-1.787 2.384-3.574 4.067-5.755.99-1.26 1.488-2.127 1.986-2.993.031-.404.062-.807.265-1.77.387-1.109.602-1.659.817-2.209 0 0 .014.036.035.039 1.802-1.567 3.583-3.139 5.799-4.552 1.351 3.232 2.643 5.573 6.612 5.337 1.201-.072 2.511 1.685 3.771 2.603-1.613.818-3.166 2.097-4.856 2.315-1.505.194-3.165-1.142-4.75-1.127-1.039.01-2.556 1.009-2.967 1.953-.439 1.01-.248 2.841.445 3.634.625.715 2.773 1.125 3.44.613 5.24-4.021 10.881-1.48 16.379-1.385 2.26.039 5.291.505 6.642-.705 3.412-3.058 7.048-2.996 11.113-2.884 2.561.071 5.143-.931 7.731-1.361 1.244-.207 2.537-.113 3.782-.316 1.945-.318 3.868-.773 5.8-1.169 3.276 3.435 6.552 6.869 9.67 10.84-4.741 3.103-9.797 5.241-9.408 11.932.043.733-.892 1.951-1.641 2.232-4.579 1.718-3.604 4.301-1.329 7.195-.893 1.482-1.787 2.964-2.921 4.662m-72.883 4.17l.346-.973-.412-.122c-.07.337-.14.674.066 1.094z"/><path d="M183.619 169.936c-2.196 7.225-5.807 13.804-13.262 17.912.307-1.524.923-3.181 1.628-5.138 3.844-4.395 7.597-8.49 11.634-12.774zm-16.879 23.302c.211 2.933-.234 5.828-4.434 6.633 1.16-2.096 2.681-4.25 4.434-6.633zm2.012-3.072c-.274.671-.768 1.553-1.508 2.62.265-.68.777-1.544 1.508-2.62zm15.381 92.597c-1.57-.758-2.927-1.783-4.283-2.809 1.013-1.22 1.822-2.751 3.089-3.582 1.689-1.107 3.734-1.669 5.928-2.354-1.306 2.9-2.913 5.689-4.734 8.745z" class="I"/><path d="M196.053 256.347c.38-1.604.836-2.874 1.457-4.605l5.281 4.256c-.808 1.703-1.917 3.251-3.284 4.976-1.298-1.312-2.339-2.802-3.454-4.627z" class="E"/><path fill="#19b004" d="M250.12 159.702a34.52 34.52 0 0 1-5.907 1.484c-1.245.203-2.538.109-3.782.316-2.588.43-5.17 1.432-7.731 1.361-4.065-.112-7.701-.174-11.113 2.884-1.351 1.211-4.382.744-6.642.705-5.498-.095-11.139-2.636-16.379 1.385-.666.511-2.815.101-3.44-.613-.693-.793-.884-2.624-.445-3.634.41-.944 1.928-1.943 2.967-1.953 1.585-.015 3.245 1.32 4.75 1.127 1.69-.217 3.243-1.497 4.856-2.315-1.26-.919-2.57-2.675-3.771-2.603-3.969.237-5.261-2.105-6.327-5.5 3.053-5.466 6.256-10.61 9.81-16.193a24.94 24.94 0 0 1 .975-1.117l.214-2.523c-.002-.362-.017-.446.204-.428l.74.034 7.663-8.207c1.329-1.451 2.571-2.981 4.154-4.647 4.482 5.283 8.576 10.808 12.9 16.145 1.175 1.45 3.047 2.336 4.947 3.604 1.574 3.151 2.801 6.179 4.283 9.795.564 1.103.871 1.617 1.179 2.131 3.935 1.442 6.564 3.812 5.893 8.763z"/><path d="M247.524 192.029c-2.493-2.708-3.468-5.291 1.11-7.009.749-.281 1.684-1.499 1.641-2.232-.39-6.691 4.667-8.828 9.527-11.611.512.026.748.266 1.167.683.155.342.126.507-.205 1.111l-2.558 4.271-10.683 14.787z" class="I"/><g class="H"><path d="M257.726 160.253c-4.01-4.286-8.189-8.43-11.955-12.921-1.74-2.075-2.674-4.826-4.122-7.544-.148-.274.117-.56.551-.565 1.874 1.578 3.315 3.162 4.988 4.987l9.634 10.371c.474 2.021.86 3.691 1.16 5.438l-.256.234zm3.778 4.254l-3.613-3.983c-.165-.271.006-.427.392-.379 1.512 1.308 2.638 2.568 3.625 3.958l-.404.404z"/><path d="M262.905 166.075c-.461-.297-.803-.706-1.273-1.342-.128-.227.138-.5.442-.419.599.529.894.977 1.189 1.425l-.358.335z"/></g><path fill="#17ab02" d="M244.107 150.665c-.188-.24-.496-.754-.909-1.551.193.237.491.756.909 1.551z"/><path d="M258.443 177.209c.517-1.245 1.269-2.522 2.283-3.989-.508 1.193-1.278 2.574-2.283 3.989z" class="D"/><path d="M189.727 161.198c-.27.669-.768 1.536-1.517 2.58.263-.676.776-1.529 1.517-2.58z" class="I"/><path d="M190.885 157.274c-.062.297-.278.847-.65 1.653.061-.296.279-.848.65-1.653zm-4.559-60.206c.682-2.132 1.673-4.329 2.898-6.818.633-.08 1.033.131 1.633.46-.589 1.774-1.377 3.43-2.305 5.385-.732.501-1.325.705-2.226.973z" class="C"/><path fill="#17fa0c" d="M256.734 154.229c-3.105-3.259-6.21-6.518-9.528-10.388 1.245-7.287-5.172-7.723-8.273-10.785 0 0-.007-.007-.019.009.748-3.47.055-6.124-3.148-8.431-1.662-1.197-2.2-3.956-3.958-7.406l5.882 1.65c.303.272.304.443.11 1.086-.138 1.468-.305 3.255.009 3.344 7.033 1.991 10.783 7.293 13.581 13.435.778 1.708 1.427 4.058.863 5.668-1.119 3.197-.257 4.745 2.756 5.609.012.018-.009-.021.064-.371 3.692-6.448 10.191-8.31 16.015-11.159.259-.127.656 0 .983.045 3.766.523 7.642.676 11.248 1.743 1.781.527 4.285 2.692 4.348 4.204.223 5.362 3.201 7.497 7.738 8.967 4.563 1.479 8.711 3.695 8.399 9.76.268 1.402.733 2.596 1.365 3.954.391.385.611.608.733 1.157.45 2.433.943 4.559 1.559 6.648.794 2.694 1.687 5.359 2.537 8.036l-11.969 1.304c2.776 2.502 4.743 4.275 6.843 6.36-6.567.007-13.268-.299-20.384-.641-4.61-4.931-8.805-9.827-13.289-15.339-.373-6.726-5.198-10.066-8.486-14.215-1.458-1.839-3.956-2.855-5.981-4.244m21.122-7.249c-2.118 3.509.318 4.732 2.952 4.669 1.802-.042 3.566-1.684 5.347-2.611-1.707-1.215-3.328-2.599-5.174-3.543-.559-.286-1.74.646-3.125 1.484z"/><path d="M256.822 154.581c1.938 1.037 4.436 2.053 5.894 3.892 3.288 4.149 8.113 7.489 8.263 13.956-2.337-1.882-4.741-4.122-7.43-6.525-.58-.612-.874-1.06-1.335-1.72-1.292-1.471-2.418-2.731-3.845-4.117-.687-1.795-1.073-3.464-1.546-5.486z" class="O"/><path d="M311.393 193.204c-7.381.007-14.35-.032-21.768-.088-.488-.186-.527-.355-.618-.778 8.681-.07 17.415.113 26.526.431-.991.219-2.36.304-4.14.435z" class="B"/><path d="M208.947 131.979c-.019.134-.192.128-.621.079-.256-.044-.234-.386-.206-.553.256-.017.471.15.827.473z" class="C"/><path d="M207.781 135.199c-.048.06-.257.286-.621.684.041-.066.247-.296.621-.684z" class="M"/><path d="M225.52 224.949c.882-2.144 1.882-4.535 3.263-6.681a111.58 111.58 0 0 1 6.519-9.089c1.454-1.827 3.291-3.35 5.297-5.077-2.607 4.987-5.554 10.043-8.628 15.422-2.139 1.979-4.15 3.634-6.45 5.425zm-5.219 8.757c1.247-2.586 2.754-5.372 4.546-8.333-1.239 2.594-2.763 5.364-4.546 8.333zm-5.003 7.119c1.146-2.112 2.578-4.318 4.321-6.641-.333 1.58-.978 3.278-1.726 5.299-.839.632-1.575.94-2.595 1.342z" class="F"/><path d="M178.386 108.079c1.421-2.278 3.174-4.626 5.205-7.172-.055 1.278-.387 2.754-.774 4.599-.285.561-.486.78-.772 1.217-1.186.555-2.257.92-3.659 1.355zm-9.02 13.8c1.462-2.444 3.239-5.001 5.297-7.725a87.65 87.65 0 0 1-5.297 7.725zm7.093-9.967c.162-.481.536-1.162 1.128-2.047-.16.48-.538 1.163-1.128 2.047zm-1.279 1.884c0-.107.203-.359.614-.756-.007.101-.213.352-.614.756zm9.1-14.93c.021-.089.235-.321.652-.686-.03.082-.251.307-.652.686zm-78.492-4.642c-.266.679-.755 1.566-1.501 2.627.255-.69.767-1.555 1.501-2.627zm-1.983 3.001c-.273.671-.771 1.547-1.518 2.602.265-.68.779-1.538 1.518-2.602z" class="C"/><path d="M167.335 367.877c3.167-4.751 6.616-9.685 10.391-14.724-3.153 4.776-6.63 9.659-10.391 14.724zm-7.032 9.033a120.34 120.34 0 0 1 6.45-8.749c-1.837 2.782-3.996 5.681-6.45 8.749z" class="K"/><path fill="#10f206" d="M256.465 27.158c.843.621 1.344 1.163 2.058 1.88.258.578.303.98.358 1.688-6.17 4.144-8.204 2.731-8.885-6.273 2.037.604 4.082 1.615 6.469 2.705z"/><path fill="#0fed04" d="M52.869 223.689c-1.13-.809-2.381-1.922-3.733-3.354 1.136.804 2.375 1.927 3.733 3.354z"/><path d="M90.837 291.78c-.078-.024-.288-.222-.631-.592.078.024.289.221.631.592z" class="B"/><path fill="#13fb07" d="M310.106 181.329l-2.644-8.36c-.616-2.089-1.108-4.215-1.224-6.759 2.146-2.696 4.575-4.714 5.441-7.264 2.595-7.641.362-14.98-2.126-22.338-1.828-5.403-4.622-8.588-10.623-9.496-4.86-.736-9.676-2.582-14.163-4.68-3.22-1.506-5.865-4.241-8.766-6.428 2.729.434 5.457 1.231 8.187 1.235 8.418.014 16.771-.187 24.644 3.773 1.402.705 3.727-.427 5.939-.894 6.688 6.837 13.185 13.773 16.237 23.471.762 7.215 6.007 10.835 10.723 15.216-2.402 3.188-4.996 6.02-3.432 10.752.379 1.147-1.477 3.519-2.855 4.67-4.432 3.701-9.115 7.103-13.713 10.604-4.125 3.141-7.489 2.204-11.625-3.502z"/><path fill="#16fe09" d="M276.056 115.698c2.846 2.492 5.491 5.227 8.711 6.733 4.487 2.099 9.303 3.945 14.163 4.68 6 .909 8.795 4.093 10.623 9.496 2.489 7.359 4.722 14.697 2.126 22.338-.866 2.549-3.295 4.568-5.344 6.94-.553-.114-.773-.337-1.196-1.068-.512-1.612-.825-2.714-1.137-3.817.115-5.857-4.032-8.073-8.595-9.552-4.537-1.47-7.515-3.605-7.738-8.967-.063-1.512-2.567-3.677-4.348-4.204-3.606-1.067-7.482-1.22-11.248-1.743-.327-.046-.724-.172-.983-.045-5.824 2.848-12.323 4.711-16.016 11.16l-.075.353c-3-.847-3.862-2.394-2.743-5.592.564-1.61-.086-3.961-.863-5.668-2.797-6.143-6.548-11.444-13.581-13.435-.314-.089-.147-1.876-.009-3.088l18.88-3.65c5.494-1.207 10.895-2.842 16.323-4.341 3.028-.836 3.549.659 3.051 3.469z"/><path d="M283.217 106.468c1.492-.197 3.208-.181 5.344-.077-1.427.155-3.274.222-5.344.077zm-26.081.113c.314-.173.759-.246 1.543-.322-.245.138-.828.28-1.543.322zm-18.109 26.799c3.008 2.738 9.425 3.173 7.948 10.218-1.459-1.214-2.9-2.797-4.638-4.515-1.27-1.882-2.243-3.63-3.31-5.703z" class="O"/><path d="M171.364 201.006c-.068-.379.002-.716.072-1.053l.412.122c-.115.324-.231.648-.484.931z" class="I"/><path d="M278.101 146.748c1.141-.606 2.322-1.538 2.88-1.252 1.846.944 3.467 2.328 5.174 3.543-1.781.927-3.545 2.569-5.347 2.611-2.634.062-5.07-1.161-2.707-4.902z" class="G"/><path fill="#13fb07" d="M303.806 161.209c.508.894.82 1.996 1.165 3.444-.432-.848-.896-2.042-1.165-3.444z"/><path fill="#16fe09" d="M255.001 147.999c.001-.001.022.038.01.021s-.011-.02-.01-.021z"/></svg>