<svg version="1.1" id="Layer_1" xmlns="http://www.w3.org/2000/svg" xmlns:xlink="http://www.w3.org/1999/xlink" x="0px" y="0px"
	 width="100%" viewBox="0 0 143 143" enable-background="new 0 0 143 143" xml:space="preserve">
<path fill="#030001" opacity="1.000000" stroke="none" 
	d="
M80.000000,144.000000 
	C53.356220,144.000000 27.212442,144.000000 1.034332,144.000000 
	C1.034332,96.397934 1.034332,48.795841 1.034332,1.096873 
	C48.560215,1.096873 96.120689,1.096873 143.840576,1.096873 
	C143.840576,48.666241 143.840576,96.333069 143.840576,144.000000 
	C122.796234,144.000000 101.648117,144.000000 80.000000,144.000000 
M125.109459,33.583118 
	C125.352020,32.727772 125.594582,31.872423 125.833199,30.264187 
	C124.289665,29.573309 122.746918,28.284813 121.202469,28.282755 
	C103.087631,28.258629 84.971184,28.332127 66.858116,28.588842 
	C58.689388,28.704618 51.204239,31.253901 44.617588,36.205879 
	C28.828062,48.076767 26.618465,76.459053 33.303352,90.651772 
	C33.406918,90.871666 33.846359,90.933357 34.502289,91.247795 
	C34.674393,90.418625 34.823658,89.699493 35.367844,88.372055 
	C36.233765,84.671318 36.554413,80.729996 38.062321,77.312523 
	C43.832676,64.234802 54.279026,57.113850 68.211365,54.794289 
	C74.917198,53.677853 75.841187,54.184822 75.605095,60.703808 
	C75.310303,68.843658 75.127090,77.067184 73.803001,85.073883 
	C70.862411,102.855415 64.407547,118.605804 37.345654,120.928284 
	C36.527267,120.998528 35.756115,121.619164 33.921333,122.461243 
	C36.640419,123.693718 38.330696,124.971146 40.150181,125.194099 
	C47.196461,126.057503 54.277985,127.060036 61.357113,127.148071 
	C82.107216,127.406136 97.251404,113.779404 99.155327,93.193352 
	C100.164520,82.281532 100.630791,71.315781 101.167068,60.365807 
	C101.372078,56.179741 102.638069,53.830048 107.303864,52.898895 
	C112.218285,51.918114 117.226006,50.055321 120.129784,44.489056 
	C120.411118,44.009308 120.692444,43.529556 121.561592,42.760994 
	C122.474091,40.840034 123.386581,38.919079 124.620674,36.272129 
	C124.666054,35.485268 124.711433,34.698406 125.109459,33.583118 
z"/>
<path fill="#C80101" opacity="1.000000" stroke="none" 
	d="
M120.973770,43.049805 
	C120.692444,43.529556 120.411118,44.009308 119.622528,44.627369 
	C118.753052,44.826828 118.390839,44.887974 117.720047,45.060921 
	C116.541100,46.095894 115.670715,47.019062 114.456223,48.028137 
	C111.792503,49.004444 109.541901,50.269703 107.139786,50.711811 
	C101.030060,51.836311 99.073990,54.032482 98.811943,60.163353 
	C98.364540,70.631012 98.249741,81.151276 97.053619,91.541046 
	C93.959030,118.421402 73.811310,127.606949 50.340992,125.640793 
	C49.179684,125.543503 48.083702,124.666412 45.654076,123.557762 
	C48.899052,121.899918 50.945778,120.673752 53.126869,119.772896 
	C60.442833,116.751175 66.997131,112.570999 69.828819,104.925728 
	C72.568382,97.529205 74.907295,89.845871 76.186401,82.084846 
	C77.529655,73.934616 77.693214,65.546318 77.801247,57.254623 
	C77.855019,53.127285 75.128212,50.809097 70.721107,51.791962 
	C60.450340,54.082520 50.147011,56.371990 42.993111,64.889565 
	C42.308571,63.817673 41.663872,63.061661 41.019173,62.305653 
	C39.716465,63.655418 38.005634,64.823662 37.289314,66.434227 
	C36.949200,67.198944 38.506466,68.807526 39.092430,70.385757 
	C37.616203,74.083748 36.251717,77.429817 34.547512,80.685577 
	C30.021814,76.988197 31.774921,72.059174 32.194180,67.993141 
	C34.402912,46.572403 45.081734,31.158480 68.931023,30.907928 
	C81.401474,30.776918 93.874199,30.837881 106.345833,30.855509 
	C112.265686,30.863876 118.185379,30.973822 124.053764,31.333069 
	C123.939842,32.023273 123.877312,32.418159 123.610428,33.018940 
	C123.224129,34.487034 123.042191,35.749233 122.765289,37.284470 
	C122.424538,38.288353 122.178764,39.019196 121.763046,39.958172 
	C121.392265,40.461742 121.191422,40.757183 120.954384,41.384583 
	C120.936722,42.160965 120.955246,42.605389 120.973770,43.049805 
z"/>
<path fill="#9A090B" opacity="1.000000" stroke="none" 
	d="
M118.028625,44.949123 
	C118.390839,44.887974 118.753052,44.826828 119.390610,44.788773 
	C117.226006,50.055321 112.218285,51.918114 107.303864,52.898895 
	C102.638069,53.830048 101.372078,56.179741 101.167068,60.365807 
	C100.630791,71.315781 100.164520,82.281532 99.155327,93.193352 
	C97.251404,113.779404 82.107216,127.406136 61.357113,127.148071 
	C54.277985,127.060036 47.196461,126.057503 40.150181,125.194099 
	C38.330696,124.971146 36.640419,123.693718 33.921333,122.461243 
	C35.756115,121.619164 36.527267,120.998528 37.345654,120.928284 
	C64.407547,118.605804 70.862411,102.855415 73.803001,85.073883 
	C75.127090,77.067184 75.310303,68.843658 75.605095,60.703808 
	C75.841187,54.184822 74.917198,53.677853 68.211365,54.794289 
	C54.279026,57.113850 43.832676,64.234802 38.062321,77.312523 
	C36.554413,80.729996 36.233765,84.671318 35.066086,88.347916 
	C34.805294,85.807808 34.846260,83.291847 34.887230,80.775879 
	C36.251717,77.429817 37.616203,74.083748 39.287430,70.148567 
	C40.740433,68.108116 41.886692,66.656784 43.032948,65.205444 
	C50.147011,56.371990 60.450340,54.082520 70.721107,51.791962 
	C75.128212,50.809097 77.855019,53.127285 77.801247,57.254623 
	C77.693214,65.546318 77.529655,73.934616 76.186401,82.084846 
	C74.907295,89.845871 72.568382,97.529205 69.828819,104.925728 
	C66.997131,112.570999 60.442833,116.751175 53.126869,119.772896 
	C50.945778,120.673752 48.899052,121.899918 45.654076,123.557762 
	C48.083702,124.666412 49.179684,125.543503 50.340992,125.640793 
	C73.811310,127.606949 93.959030,118.421402 97.053619,91.541046 
	C98.249741,81.151276 98.364540,70.631012 98.811943,60.163353 
	C99.073990,54.032482 101.030060,51.836311 107.139786,50.711811 
	C109.541901,50.269703 111.792503,49.004444 114.730972,47.862267 
	C116.242775,46.723370 117.135696,45.836246 118.028625,44.949123 
z"/>
<path fill="#A0080B" opacity="1.000000" stroke="none" 
	d="
M34.547508,80.685577 
	C34.846260,83.291847 34.805294,85.807808 34.868622,88.652069 
	C34.823658,89.699493 34.674393,90.418625 34.502289,91.247795 
	C33.846359,90.933357 33.406918,90.871666 33.303352,90.651772 
	C26.618465,76.459053 28.828062,48.076767 44.617588,36.205879 
	C51.204239,31.253901 58.689388,28.704618 66.858116,28.588842 
	C84.971184,28.332127 103.087631,28.258629 121.202469,28.282755 
	C122.746918,28.284813 124.289665,29.573309 125.546036,30.639595 
	C124.874298,31.022587 124.489723,31.030167 124.105148,31.037750 
	C118.185379,30.973822 112.265686,30.863876 106.345833,30.855509 
	C93.874199,30.837881 81.401474,30.776918 68.931023,30.907928 
	C45.081734,31.158480 34.402912,46.572403 32.194180,67.993141 
	C31.774921,72.059174 30.021814,76.988197 34.547508,80.685577 
z"/>
<path fill="#9A090B" opacity="1.000000" stroke="none" 
	d="
M121.932991,39.750042 
	C122.178764,39.019196 122.424538,38.288353 123.005951,37.280296 
	C123.341591,37.003082 123.820305,36.995651 123.820305,36.995651 
	C123.820305,36.995651 124.299072,36.998116 124.299072,36.998116 
	C123.386581,38.919079 122.474091,40.840034 121.267685,42.905403 
	C120.955246,42.605389 120.936722,42.160965 121.116219,41.171299 
	C121.520500,40.334049 121.726746,40.042046 121.932991,39.750042 
z"/>
<path fill="#A0080B" opacity="1.000000" stroke="none" 
	d="
M124.459869,36.635124 
	C124.299072,36.998116 123.820305,36.995651 123.820305,36.995651 
	C123.820305,36.995651 123.341591,37.003082 123.100922,37.007256 
	C123.042191,35.749233 123.224129,34.487034 123.766403,33.204922 
	C124.330811,33.432343 124.540833,33.674522 124.756813,33.911545 
	C124.711433,34.698406 124.666054,35.485268 124.459869,36.635124 
z"/>
<path fill="#9A090B" opacity="1.000000" stroke="none" 
	d="
M124.933136,33.747330 
	C124.540833,33.674522 124.330811,33.432343 123.970757,32.999023 
	C123.877312,32.418159 123.939842,32.023273 124.053764,31.333069 
	C124.489723,31.030167 124.874298,31.022587 125.548012,31.016041 
	C125.594582,31.872423 125.352020,32.727772 124.933136,33.747330 
z"/>
<path fill="#C10405" opacity="1.000000" stroke="none" 
	d="
M42.993111,64.889565 
	C41.886692,66.656784 40.740433,68.108116 39.399178,69.796631 
	C38.506466,68.807526 36.949200,67.198944 37.289314,66.434227 
	C38.005634,64.823662 39.716465,63.655418 41.019173,62.305653 
	C41.663872,63.061661 42.308571,63.817673 42.993111,64.889565 
z"/>
<path fill="#A0080B" opacity="1.000000" stroke="none" 
	d="
M117.720047,45.060921 
	C117.135696,45.836246 116.242775,46.723370 115.075089,47.776360 
	C115.670715,47.019062 116.541100,46.095894 117.720047,45.060921 
z"/>
<path fill="#A0080B" opacity="1.000000" stroke="none" 
	d="
M121.763046,39.958172 
	C121.726746,40.042046 121.520500,40.334049 121.152412,40.839340 
	C121.191422,40.757183 121.392265,40.461742 121.763046,39.958172 
z"/>
</svg>