<svg id="visual" viewBox="0 0 900 300" width="900" height="250" xmlns="http://www.w3.org/2000/svg" xmlns:xlink="http://www.w3.org/1999/xlink" version="1.1"><rect x="0" y="0" width="900" height="300" fill="#2c3e50"></rect><path d="M0 154L30 156.7C60 159.3 120 164.7 180 173.8C240 183 300 196 360 198C420 200 480 191 540 191.7C600 192.3 660 202.7 720 203.8C780 205 840 197 870 193L900 189L900 301L870 301C840 301 780 301 720 301C660 301 600 301 540 301C480 301 420 301 360 301C300 301 240 301 180 301C120 301 60 301 30 301L0 301Z" fill="#c0392b"></path><path d="M0 209L30 210.3C60 211.7 120 214.3 180 215.2C240 216 300 215 360 217.5C420 220 480 226 540 227.5C600 229 660 226 720 222.8C780 219.7 840 216.3 870 214.7L900 213L900 301L870 301C840 301 780 301 720 301C660 301 600 301 540 301C480 301 420 301 360 301C300 301 240 301 180 301C120 301 60 301 30 301L0 301Z" fill="#9b261e"></path><path d="M0 236L30 234.7C60 233.3 120 230.7 180 232.2C240 233.7 300 239.3 360 239.5C420 239.7 480 234.3 540 238.5C600 242.7 660 256.3 720 256.5C780 256.7 840 243.3 870 236.7L900 230L900 301L870 301C840 301 780 301 720 301C660 301 600 301 540 301C480 301 420 301 360 301C300 301 240 301 180 301C120 301 60 301 30 301L0 301Z" fill="#771212"></path><path d="M0 295L30 288.7C60 282.3 120 269.7 180 267.2C240 264.7 300 272.3 360 272.3C420 272.3 480 264.7 540 267.7C600 270.7 660 284.3 720 289.7C780 295 840 292 870 290.5L900 289L900 301L870 301C840 301 780 301 720 301C660 301 600 301 540 301C480 301 420 301 360 301C300 301 240 301 180 301C120 301 60 301 30 301L0 301Z" fill="#560000"></path></svg>